<?xml version="1.0" encoding="UTF-8" standalone="no"?>
<!DOCTYPE svg PUBLIC "-//W3C//DTD SVG 1.1//EN"
 "http://www.w3.org/Graphics/SVG/1.1/DTD/svg11.dtd">
<!-- Generated by graphviz version 2.26.3 (20100126.1600)
 -->
<!-- Title: G Pages: 1 -->
<svg width="320pt" height="342pt"
 viewBox="0.00 0.00 320.22 342.00" xmlns="http://www.w3.org/2000/svg" xmlns:xlink="http://www.w3.org/1999/xlink">
<g id="graph1" class="graph" transform="scale(1 1) rotate(0) translate(4 338)">
<title>G</title>
<polygon fill="lightyellow" stroke="lightyellow" points="-4,5 -4,-338 317.221,-338 317.221,5 -4,5"/>
<!-- org.molgenis.auth&#45;&gt;org.molgenis.core -->
<g id="edge2" class="edge"><title>org.molgenis.auth&#45;&gt;org.molgenis.core</title>
<path fill="none" stroke="black" d="M82.7358,-256.878C85.532,-257.936 88.3064,-258.984 91,-260 123.272,-272.169 159.568,-285.75 188.019,-296.372"/>
<polygon fill="black" stroke="black" points="187.144,-299.781 197.736,-299.999 189.591,-293.223 187.144,-299.781"/>
<text text-anchor="middle" x="89.7169" y="-261.838" font-family="Bitstream Vera Sans" font-size="8.00">5</text>
</g>
<!-- org.molgenis.observ&#45;&gt;org.molgenis.core -->
<g id="edge4" class="edge"><title>org.molgenis.observ&#45;&gt;org.molgenis.core</title>
<path fill="none" stroke="black" d="M185.905,-185.151C197.752,-194.775 210.919,-207.587 219,-222 230.152,-241.89 234.799,-267.45 236.716,-286.739"/>
<polygon fill="black" stroke="black" points="233.229,-287.048 237.523,-296.734 240.206,-286.484 233.229,-287.048"/>
<text text-anchor="middle" x="190.174" y="-191.994" font-family="Bitstream Vera Sans" font-size="8.00">3</text>
</g>
<!-- org.molgenis.observ&#45;&gt;org.molgenis.observ.target -->
<g id="edge6" class="edge"><title>org.molgenis.observ&#45;&gt;org.molgenis.observ.target</title>
<path fill="none" stroke="black" d="M152.848,-185.292C151.487,-193.536 150.593,-203.462 150.333,-212.638"/>
<polygon fill="black" stroke="black" points="146.833,-212.916 150.327,-222.918 153.833,-212.92 146.833,-212.916"/>
<text text-anchor="middle" x="147.273" y="-191.394" font-family="Bitstream Vera Sans" font-size="8.00">2</text>
</g>
<!-- org.molgenis.observ.target&#45;&gt;org.molgenis.core -->
<g id="edge10" class="edge"><title>org.molgenis.observ.target&#45;&gt;org.molgenis.core</title>
<path fill="none" stroke="black" d="M175.517,-259.292C185.97,-268.612 198.833,-280.08 210.166,-290.184"/>
<polygon fill="black" stroke="black" points="207.926,-292.876 217.719,-296.918 212.584,-287.651 207.926,-292.876"/>
<text text-anchor="middle" x="179.469" y="-266.278" font-family="Bitstream Vera Sans" font-size="8.00">3</text>
</g>
<!-- org.molgenis.observ.target&#45;&gt;org.molgenis.observ -->
<g id="edge8" class="edge"><title>org.molgenis.observ.target&#45;&gt;org.molgenis.observ</title>
<path fill="none" stroke="black" d="M162.117,-222.918C163.501,-214.613 164.409,-204.569 164.669,-195.298"/>
<polygon fill="black" stroke="black" points="168.169,-195.296 164.68,-185.292 161.169,-195.288 168.169,-195.296"/>
<text text-anchor="middle" x="167.703" y="-212.424" font-family="Bitstream Vera Sans" font-size="8.00">2</text>
</g>
<!-- org.molgenis.variant&#45;&gt;org.molgenis.observ -->
<g id="edge12" class="edge"><title>org.molgenis.variant&#45;&gt;org.molgenis.observ</title>
<path fill="none" stroke="black" d="M105.798,-111.292C114.691,-120.433 125.596,-131.64 135.286,-141.6"/>
<polygon fill="black" stroke="black" points="132.925,-144.192 142.407,-148.918 137.942,-139.31 132.925,-144.192"/>
<text text-anchor="middle" x="109.089" y="-118.535" font-family="Bitstream Vera Sans" font-size="8.00">7</text>
</g>
<!-- org.molgenis.variant&#45;&gt;org.molgenis.observ.target -->
<g id="edge14" class="edge"><title>org.molgenis.variant&#45;&gt;org.molgenis.observ.target</title>
<path fill="none" stroke="black" d="M88.9535,-111.015C90.5868,-130.423 95.0131,-161.778 107,-186 112.25,-196.61 120.06,-206.799 127.861,-215.463"/>
<polygon fill="black" stroke="black" points="125.536,-218.098 134.951,-222.958 130.622,-213.288 125.536,-218.098"/>
<text text-anchor="middle" x="85.5931" y="-118.234" font-family="Bitstream Vera Sans" font-size="8.00">2</text>
</g>
<!-- org.molgenis.organization&#45;&gt;org.molgenis.core -->
<g id="edge16" class="edge"><title>org.molgenis.organization&#45;&gt;org.molgenis.core</title>
<path fill="none" stroke="black" d="M275.133,-37.2287C287.813,-46.476 301.092,-58.9552 308,-74 315.047,-89.3483 310.791,-95.3434 308,-112 297.113,-176.97 267.903,-248.97 250.853,-287.339"/>
<polygon fill="black" stroke="black" points="247.511,-286.235 246.595,-296.79 253.894,-289.11 247.511,-286.235"/>
<text text-anchor="middle" x="279.834" y="-43.8548" font-family="Bitstream Vera Sans" font-size="8.00">7</text>
</g>
<!-- org.molgenis.organization&#45;&gt;org.molgenis.observ -->
<g id="edge22" class="edge"><title>org.molgenis.organization&#45;&gt;org.molgenis.observ</title>
<path fill="none" stroke="black" d="M215.632,-37.0048C202.88,-46.5116 188.759,-59.2661 180,-74 168.251,-93.7633 163.366,-119.535 161.354,-138.936"/>
<polygon fill="black" stroke="black" points="157.86,-138.721 160.506,-148.98 164.835,-139.309 157.86,-138.721"/>
<text text-anchor="middle" x="205.864" y="-36.9475" font-family="Bitstream Vera Sans" font-size="8.00">1</text>
</g>
<!-- org.molgenis.organization&#45;&gt;org.molgenis.observ.target -->
<g id="edge20" class="edge"><title>org.molgenis.organization&#45;&gt;org.molgenis.observ.target</title>
<path fill="none" stroke="black" d="M188.423,-25.8748C132.772,-34.0357 52.7673,-49.6845 34,-74 -4.69407,-124.133 67.8469,-184.714 116.382,-217.371"/>
<polygon fill="black" stroke="black" points="114.56,-220.362 124.836,-222.943 118.413,-214.517 114.56,-220.362"/>
<text text-anchor="middle" x="178.822" y="-20.8793" font-family="Bitstream Vera Sans" font-size="8.00">5</text>
</g>
<!-- org.molgenis.organization&#45;&gt;org.molgenis.gwascentral -->
<g id="edge18" class="edge"><title>org.molgenis.organization&#45;&gt;org.molgenis.gwascentral</title>
<path fill="none" stroke="black" d="M238.084,-37.2921C237.271,-45.6261 237.052,-55.6784 237.428,-64.9367"/>
<polygon fill="black" stroke="black" points="233.936,-65.178 238.105,-74.9183 240.92,-64.7044 233.936,-65.178"/>
<text text-anchor="middle" x="233.074" y="-43.7464" font-family="Bitstream Vera Sans" font-size="8.00">1</text>
</g>
<!-- org.molgenis.gwascentral&#45;&gt;org.molgenis.core -->
<g id="edge24" class="edge"><title>org.molgenis.gwascentral&#45;&gt;org.molgenis.core</title>
<path fill="none" stroke="black" d="M243.509,-111.167C242.465,-149.802 240.017,-240.365 238.766,-286.662"/>
<polygon fill="black" stroke="black" points="235.261,-286.802 238.489,-296.893 242.258,-286.991 235.261,-286.802"/>
<text text-anchor="middle" x="239.039" y="-117.913" font-family="Bitstream Vera Sans" font-size="8.00">10</text>
</g>
<!-- org.molgenis.gwascentral&#45;&gt;org.molgenis.observ -->
<g id="edge28" class="edge"><title>org.molgenis.gwascentral&#45;&gt;org.molgenis.observ</title>
<path fill="none" stroke="black" d="M223.236,-111.292C212.657,-120.612 199.638,-132.08 188.169,-142.184"/>
<polygon fill="black" stroke="black" points="185.715,-139.682 180.525,-148.918 190.342,-144.934 185.715,-139.682"/>
<text text-anchor="middle" x="213.642" y="-111.912" font-family="Bitstream Vera Sans" font-size="8.00">10</text>
</g>
<!-- org.molgenis.gwascentral&#45;&gt;org.molgenis.observ.target -->
<g id="edge30" class="edge"><title>org.molgenis.gwascentral&#45;&gt;org.molgenis.observ.target</title>
<path fill="none" stroke="black" d="M240.674,-111.277C236.495,-130.909 227.988,-162.454 213,-186 205.944,-197.085 196.173,-207.494 186.661,-216.211"/>
<polygon fill="black" stroke="black" points="184.343,-213.588 179.144,-222.819 188.965,-218.845 184.343,-213.588"/>
<text text-anchor="middle" x="234.58" y="-117.006" font-family="Bitstream Vera Sans" font-size="8.00">5</text>
</g>
<!-- org.molgenis.gwascentral&#45;&gt;org.molgenis.organization -->
<g id="edge26" class="edge"><title>org.molgenis.gwascentral&#45;&gt;org.molgenis.organization</title>
<path fill="none" stroke="black" d="M249.895,-74.9183C250.718,-66.6135 250.947,-56.5691 250.581,-47.2976"/>
<polygon fill="black" stroke="black" points="254.072,-47.0378 249.916,-37.2921 247.087,-47.5024 254.072,-47.0378"/>
<text text-anchor="middle" x="254.918" y="-64.0713" font-family="Bitstream Vera Sans" font-size="8.00">6</text>
</g>
<!-- org.molgenis.auth -->
<g id="node1" class="node"><title>org.molgenis.auth</title>
<polygon fill="white" stroke="#808080" points="-0.5,-223 -0.5,-259 82.5,-259 82.5,-223 -0.5,-223"/>
<text text-anchor="middle" x="41" y="-238.8" font-family="Arial" font-size="8.00">org.molgenis.auth</text>
</g>
<!-- org.molgenis.core -->
<g id="node3" class="node"><title>org.molgenis.core</title>
<polygon fill="white" stroke="#808080" points="198,-297 198,-333 278,-333 278,-297 198,-297"/>
<text text-anchor="middle" x="238" y="-312.8" font-family="Arial" font-size="8.00">org.molgenis.core</text>
</g>
<!-- org.molgenis.observ -->
<g id="node4" class="node"><title>org.molgenis.observ</title>
<polygon fill="white" stroke="#808080" points="115.5,-149 115.5,-185 204.5,-185 204.5,-149 115.5,-149"/>
<text text-anchor="middle" x="160" y="-164.8" font-family="Arial" font-size="8.00">org.molgenis.observ</text>
</g>
<!-- org.molgenis.observ.target -->
<g id="node7" class="node"><title>org.molgenis.observ.target</title>
<polygon fill="white" stroke="#808080" points="99.5,-223 99.5,-259 210.5,-259 210.5,-223 99.5,-223"/>
<text text-anchor="middle" x="155" y="-238.8" font-family="Arial" font-size="8.00">org.molgenis.observ.target</text>
</g>
<!-- org.molgenis.variant -->
<g id="node10" class="node"><title>org.molgenis.variant</title>
<polygon fill="white" stroke="#808080" points="42.5,-75 42.5,-111 133.5,-111 133.5,-75 42.5,-75"/>
<text text-anchor="middle" x="88" y="-90.8" font-family="Arial" font-size="8.00">org.molgenis.variant</text>
</g>
<!-- org.molgenis.organization -->
<g id="node13" class="node"><title>org.molgenis.organization</title>
<polygon fill="white" stroke="#808080" points="188.5,-1 188.5,-37 299.5,-37 299.5,-1 188.5,-1"/>
<text text-anchor="middle" x="244" y="-16.8" font-family="Arial" font-size="8.00">org.molgenis.organization</text>
</g>
<!-- org.molgenis.gwascentral -->
<g id="node16" class="node"><title>org.molgenis.gwascentral</title>
<polygon fill="white" stroke="#808080" points="189,-75 189,-111 299,-111 299,-75 189,-75"/>
<text text-anchor="middle" x="244" y="-90.8" font-family="Arial" font-size="8.00">org.molgenis.gwascentral</text>
</g>
</g>
</svg>
