<?xml version="1.0" encoding="UTF-8" standalone="no"?>
<!DOCTYPE svg PUBLIC "-//W3C//DTD SVG 1.1//EN"
 "http://www.w3.org/Graphics/SVG/1.1/DTD/svg11.dtd">
<!-- Generated by graphviz version 2.26.3 (20100126.1600)
 -->
<!-- Title: G Pages: 1 -->
<svg width="469pt" height="852pt"
 viewBox="0.00 0.00 469.06 852.00" xmlns="http://www.w3.org/2000/svg" xmlns:xlink="http://www.w3.org/1999/xlink">
<g id="graph1" class="graph" transform="scale(1 1) rotate(0) translate(4 848)">
<title>G</title>
<polygon fill="lightyellow" stroke="lightyellow" points="-4,5 -4,-848 466.062,-848 466.062,5 -4,5"/>
<!-- Study&#45;&gt;Person -->
<g id="edge2" class="edge"><title>Study&#45;&gt;Person</title>
<path fill="none" stroke="black" d="M155.704,-515.31C149.173,-525.832 142.332,-536.854 135.604,-547.694"/>
<polygon fill="black" stroke="black" points="132.312,-552.998 133.182,-546.476 133.894,-550.449 135.476,-547.9 135.476,-547.9 135.476,-547.9 133.894,-550.449 137.77,-549.324 132.312,-552.998 132.312,-552.998"/>
<text text-anchor="middle" x="140.682" y="-545.326" font-family="Bitstream Vera Sans" font-size="8.00">0..1</text>
<text text-anchor="middle" x="147.334" y="-518.582" font-family="Bitstream Vera Sans" font-size="8.00">*</text>
</g>
<!-- Study&#45;&gt;Investigation -->
<g id="edge4" class="edge"><title>Study&#45;&gt;Investigation</title>
<path fill="none" stroke="black" d="M205.188,-515.31C210.019,-545.331 215.505,-579.426 219.097,-601.747"/>
<polygon fill="black" stroke="black" points="220.058,-607.717 216.439,-602.222 219.581,-604.755 219.105,-601.793 219.105,-601.793 219.105,-601.793 219.581,-604.755 221.77,-601.364 220.058,-607.717 220.058,-607.717"/>
<text text-anchor="middle" x="222.79" y="-595.897" font-family="Bitstream Vera Sans" font-size="8.00">1</text>
<text text-anchor="middle" x="202.455" y="-522.73" font-family="Bitstream Vera Sans" font-size="8.00">*</text>
</g>
<!-- Experiment&#45;&gt;Study -->
<g id="edge6" class="edge"><title>Experiment&#45;&gt;Study</title>
<path fill="none" stroke="black" d="M279.321,-348.42C269.516,-360.465 259.646,-372.59 250.286,-384.086"/>
<polygon fill="black" stroke="black" points="246.308,-388.973 248.002,-382.616 248.202,-386.647 250.096,-384.32 250.096,-384.32 250.096,-384.32 248.202,-386.647 252.19,-386.025 246.308,-388.973 246.308,-388.973"/>
<text text-anchor="middle" x="255.307" y="-382.413" font-family="Bitstream Vera Sans" font-size="8.00">1</text>
<text text-anchor="middle" x="270.322" y="-350.58" font-family="Bitstream Vera Sans" font-size="8.00">*</text>
</g>
<!-- Experiment&#45;&gt;OntologyTerm -->
<g id="edge8" class="edge"><title>Experiment&#45;&gt;OntologyTerm</title>
<path fill="none" stroke="black" d="M416.231,-351.044C421.444,-363.154 425.908,-375.631 429,-388 462.632,-522.526 479.464,-570.842 429,-700 418.304,-727.376 394.945,-751.437 375.725,-767.776"/>
<polygon fill="black" stroke="black" points="370.938,-771.761 373.822,-765.848 373.244,-769.842 375.55,-767.923 375.55,-767.923 375.55,-767.923 373.244,-769.842 377.277,-769.998 370.938,-771.761 370.938,-771.761"/>
<text text-anchor="middle" x="380.608" y="-767.011" font-family="Bitstream Vera Sans" font-size="8.00">1</text>
<text text-anchor="middle" x="415.869" y="-358.838" font-family="Bitstream Vera Sans" font-size="8.00">*</text>
</g>
<!-- Experiment&#45;&gt;Panel -->
<g id="edge22" class="edge"><title>Experiment&#45;&gt;Panel</title>
<path fill="none" stroke="black" d="M339.264,-351.043C334.107,-379.548 328.921,-408.213 325.4,-427.677"/>
<polygon fill="black" stroke="black" points="324.318,-433.661 322.729,-427.276 324.852,-430.709 325.386,-427.757 325.386,-427.757 325.386,-427.757 324.852,-430.709 328.043,-428.237 324.318,-433.661 324.318,-433.661"/>
<text text-anchor="middle" x="330.09" y="-423.295" font-family="Bitstream Vera Sans" font-size="8.00">*</text>
<text text-anchor="middle" x="333.492" y="-357.009" font-family="Bitstream Vera Sans" font-size="8.00">*</text>
</g>
<!-- Experiment&#45;&gt;DataSet -->
<g id="edge24" class="edge"><title>Experiment&#45;&gt;DataSet</title>
<path fill="none" stroke="black" d="M374.736,-351.043C379.893,-379.548 385.079,-408.213 388.6,-427.677"/>
<polygon fill="black" stroke="black" points="389.682,-433.661 385.957,-428.237 389.148,-430.709 388.614,-427.757 388.614,-427.757 388.614,-427.757 389.148,-430.709 391.271,-427.276 389.682,-433.661 389.682,-433.661"/>
<text text-anchor="middle" x="392.228" y="-421.79" font-family="Bitstream Vera Sans" font-size="8.00">*</text>
<text text-anchor="middle" x="372.191" y="-358.513" font-family="Bitstream Vera Sans" font-size="8.00">*</text>
</g>
<!-- Person&#45;&gt;Institute -->
<g id="edge26" class="edge"><title>Person&#45;&gt;Institute</title>
<path fill="none" stroke="black" d="M80.2834,-699.366C80.2023,-709.819 80.2689,-720.461 80.4833,-730.602"/>
<polygon fill="black" stroke="black" points="80.6358,-736.846 77.79,-730.914 80.5625,-733.847 80.4892,-730.848 80.4892,-730.848 80.4892,-730.848 80.5625,-733.847 83.1884,-730.782 80.6358,-736.846 80.6358,-736.846"/>
<text text-anchor="middle" x="84.6394" y="-725.482" font-family="Bitstream Vera Sans" font-size="8.00">*</text>
<text text-anchor="middle" x="75.9999" y="-706.202" font-family="Bitstream Vera Sans" font-size="8.00">*</text>
</g>
<!-- Person&#45;&gt;Institute -->
<g id="edge10" class="edge"><title>Person&#45;&gt;Institute</title>
<path fill="none" stroke="black" d="M93.7166,-699.366C93.7977,-709.819 93.7311,-720.461 93.5167,-730.602"/>
<polygon fill="black" stroke="black" points="93.3642,-736.846 90.8116,-730.782 93.4375,-733.847 93.5108,-730.848 93.5108,-730.848 93.5108,-730.848 93.4375,-733.847 96.21,-730.914 93.3642,-736.846 93.3642,-736.846"/>
<text text-anchor="middle" x="97.8105" y="-725.689" font-family="Bitstream Vera Sans" font-size="8.00">0..1</text>
<text text-anchor="middle" x="89.5479" y="-706.255" font-family="Bitstream Vera Sans" font-size="8.00">*</text>
</g>
<!-- Person&#45;&gt;OntologyTerm -->
<g id="edge12" class="edge"><title>Person&#45;&gt;OntologyTerm</title>
<path fill="none" stroke="black" d="M174.232,-694.116C177.169,-696.129 180.097,-698.095 183,-700 224.009,-726.903 273.663,-753.529 307.31,-770.758"/>
<polygon fill="black" stroke="black" points="312.984,-773.652 306.413,-773.331 310.312,-772.289 307.639,-770.926 307.639,-770.926 307.639,-770.926 310.312,-772.289 308.866,-768.52 312.984,-773.652 312.984,-773.652"/>
<text text-anchor="middle" x="306.831" y="-763.569" font-family="Bitstream Vera Sans" font-size="8.00">0..1</text>
<text text-anchor="middle" x="179.327" y="-700.521" font-family="Bitstream Vera Sans" font-size="8.00">*</text>
</g>
<!-- Citation&#45;&gt;OntologyTerm -->
<g id="edge28" class="edge"><title>Citation&#45;&gt;OntologyTerm</title>
<path fill="none" stroke="black" d="M339.337,-694.126C339.016,-719.586 339.586,-746.883 341.046,-765.813"/>
<polygon fill="black" stroke="black" points="341.575,-771.898 338.365,-766.154 341.315,-768.909 341.055,-765.92 341.055,-765.92 341.055,-765.92 341.315,-768.909 343.745,-765.686 341.575,-771.898 341.575,-771.898"/>
<text text-anchor="middle" x="345" y="-760.302" font-family="Bitstream Vera Sans" font-size="8.00">*</text>
<text text-anchor="middle" x="335.029" y="-700.95" font-family="Bitstream Vera Sans" font-size="8.00">*</text>
</g>
<!-- Citation&#45;&gt;OntologyTerm -->
<g id="edge14" class="edge"><title>Citation&#45;&gt;OntologyTerm</title>
<path fill="none" stroke="black" d="M352.663,-694.126C352.984,-719.586 352.414,-746.883 350.954,-765.813"/>
<polygon fill="black" stroke="black" points="350.425,-771.898 348.255,-765.686 350.685,-768.909 350.945,-765.92 350.945,-765.92 350.945,-765.92 350.685,-768.909 353.635,-766.154 350.425,-771.898 350.425,-771.898"/>
<text text-anchor="middle" x="355.421" y="-761.035" font-family="Bitstream Vera Sans" font-size="8.00">0..1</text>
<text text-anchor="middle" x="348.519" y="-701.027" font-family="Bitstream Vera Sans" font-size="8.00">*</text>
</g>
<!-- Contribution&#45;&gt;Person -->
<g id="edge16" class="edge"><title>Contribution&#45;&gt;Person</title>
<path fill="none" stroke="black" d="M123.686,-117.187C121.95,-129.329 120.282,-142.065 119,-154 104.215,-291.642 95.0274,-452.643 90.4755,-546.579"/>
<polygon fill="black" stroke="black" points="90.1824,-552.668 87.7741,-546.545 90.3267,-549.671 90.4709,-546.675 90.4709,-546.675 90.4709,-546.675 90.3267,-549.671 93.1678,-546.805 90.1824,-552.668 90.1824,-552.668"/>
<text text-anchor="middle" x="94.8394" y="-541.619" font-family="Bitstream Vera Sans" font-size="8.00">1</text>
<text text-anchor="middle" x="118.23" y="-123.367" font-family="Bitstream Vera Sans" font-size="8.00">*</text>
</g>
<!-- Contribution&#45;&gt;Submission -->
<g id="edge18" class="edge"><title>Contribution&#45;&gt;Submission</title>
<path fill="none" stroke="black" d="M147.102,-117.206C153.813,-144.911 161.75,-177.67 168.146,-204.071"/>
<polygon fill="black" stroke="black" points="169.57,-209.947 165.533,-204.751 168.863,-207.031 168.157,-204.116 168.157,-204.116 168.157,-204.116 168.863,-207.031 170.781,-203.48 169.57,-209.947 169.57,-209.947"/>
<text text-anchor="middle" x="171.543" y="-197.944" font-family="Bitstream Vera Sans" font-size="8.00">1</text>
<text text-anchor="middle" x="145.128" y="-124.81" font-family="Bitstream Vera Sans" font-size="8.00">*</text>
</g>
<!-- Submission&#45;&gt;Study -->
<g id="edge20" class="edge"><title>Submission&#45;&gt;Study</title>
<path fill="none" stroke="black" d="M183.255,-296.18C185.161,-321.473 187.613,-354.005 189.784,-382.796"/>
<polygon fill="black" stroke="black" points="190.242,-388.879 187.099,-383.099 190.017,-385.888 189.791,-382.896 189.791,-382.896 189.791,-382.896 190.017,-385.888 192.483,-382.693 190.242,-388.879 190.242,-388.879"/>
<text text-anchor="middle" x="193.775" y="-377.324" font-family="Bitstream Vera Sans" font-size="8.00">1</text>
<text text-anchor="middle" x="179.722" y="-303.335" font-family="Bitstream Vera Sans" font-size="8.00">*</text>
</g>
<!-- Study -->
<g id="node1" class="node"><title>Study</title>
<polygon fill="#ffffcc" stroke="black" points="113.5,-389 113.5,-515 276.5,-515 276.5,-389 113.5,-389"/>
<text text-anchor="middle" x="195" y="-503.8" font-family="Arial" font-size="8.00">Study</text>
<text text-anchor="middle" x="195" y="-493.8" font-family="Arial" font-size="8.00"> implements Identifiable</text>
<polyline fill="none" stroke="black" points="113.5,-487 276.5,-487 "/>
<text text-anchor="start" x="121.5" y="-475.8" font-family="Arial" font-size="8.00">id : int*</text>
<text text-anchor="start" x="121.5" y="-465.8" font-family="Arial" font-size="8.00">identifier : string*</text>
<text text-anchor="start" x="121.5" y="-455.8" font-family="Arial" font-size="8.00">name : string*</text>
<text text-anchor="start" x="121.5" y="-445.8" font-family="Arial" font-size="8.00">description : text</text>
<text text-anchor="start" x="121.5" y="-435.8" font-family="Arial" font-size="8.00">startDate : datetime</text>
<text text-anchor="start" x="121.5" y="-425.8" font-family="Arial" font-size="8.00">updateDate : datetime*</text>
<text text-anchor="start" x="121.5" y="-415.8" font-family="Arial" font-size="8.00">endDate : datetime</text>
<text text-anchor="start" x="121.5" y="-405.8" font-family="Arial" font-size="8.00">contact : xref&#45;&gt;person</text>
<text text-anchor="start" x="121.5" y="-395.8" font-family="Arial" font-size="8.00">partOfInvestigation : xref&#45;&gt;investigation*</text>
</g>
<!-- Experiment -->
<g id="node2" class="node"><title>Experiment</title>
<polygon fill="#ffffcc" stroke="black" points="279.5,-155 279.5,-351 434.5,-351 434.5,-155 279.5,-155"/>
<text text-anchor="middle" x="357" y="-339.8" font-family="Arial" font-size="8.00">Experiment</text>
<text text-anchor="middle" x="357" y="-329.8" font-family="Arial" font-size="8.00"> implements Identifiable</text>
<polyline fill="none" stroke="black" points="279.5,-323 434.5,-323 "/>
<text text-anchor="start" x="287.5" y="-311.8" font-family="Arial" font-size="8.00">id : int*</text>
<text text-anchor="start" x="287.5" y="-301.8" font-family="Arial" font-size="8.00">identifier : string*</text>
<text text-anchor="start" x="287.5" y="-291.8" font-family="Arial" font-size="8.00">name : string*</text>
<text text-anchor="start" x="287.5" y="-281.8" font-family="Arial" font-size="8.00">__Type : enum*</text>
<text text-anchor="start" x="287.5" y="-271.8" font-family="Arial" font-size="8.00">study : xref&#45;&gt;study*</text>
<text text-anchor="start" x="287.5" y="-261.8" font-family="Arial" font-size="8.00">design : string</text>
<text text-anchor="start" x="287.5" y="-251.8" font-family="Arial" font-size="8.00">experimentType : xref&#45;&gt;ontologyTerm*</text>
<text text-anchor="start" x="287.5" y="-241.8" font-family="Arial" font-size="8.00">totalMarkersTested : int</text>
<text text-anchor="start" x="287.5" y="-231.8" font-family="Arial" font-size="8.00">totalMarkersImported : int</text>
<text text-anchor="start" x="287.5" y="-221.8" font-family="Arial" font-size="8.00">objective : text</text>
<text text-anchor="start" x="287.5" y="-211.8" font-family="Arial" font-size="8.00">outcome : text</text>
<text text-anchor="start" x="287.5" y="-201.8" font-family="Arial" font-size="8.00">comments : text</text>
<text text-anchor="start" x="287.5" y="-191.8" font-family="Arial" font-size="8.00">individualDataStatement : text</text>
<text text-anchor="start" x="287.5" y="-181.8" font-family="Arial" font-size="8.00">timeCreated : datetime*</text>
<text text-anchor="start" x="287.5" y="-171.8" font-family="Arial" font-size="8.00">assayedPanels : mref&#45;&gt;panel*</text>
<text text-anchor="start" x="287.5" y="-161.8" font-family="Arial" font-size="8.00">dataSets : mref&#45;&gt;dataSet*</text>
</g>
<!-- Institute -->
<g id="node3" class="node"><title>Institute</title>
<polygon fill="#ffffcc" stroke="black" points="44,-737 44,-843 130,-843 130,-737 44,-737"/>
<text text-anchor="middle" x="87" y="-831.8" font-family="Arial" font-size="8.00">Institute</text>
<text text-anchor="middle" x="87" y="-821.8" font-family="Arial" font-size="8.00"> implements Autoid</text>
<polyline fill="none" stroke="black" points="44,-815 130,-815 "/>
<text text-anchor="start" x="52" y="-803.8" font-family="Arial" font-size="8.00">id : int*</text>
<text text-anchor="start" x="52" y="-793.8" font-family="Arial" font-size="8.00">name : string*</text>
<text text-anchor="start" x="52" y="-783.8" font-family="Arial" font-size="8.00">address : text</text>
<text text-anchor="start" x="52" y="-773.8" font-family="Arial" font-size="8.00">phone : string</text>
<text text-anchor="start" x="52" y="-763.8" font-family="Arial" font-size="8.00">city : string</text>
<text text-anchor="start" x="52" y="-753.8" font-family="Arial" font-size="8.00">country : string</text>
<text text-anchor="start" x="52" y="-743.8" font-family="Arial" font-size="8.00">fax : string</text>
</g>
<!-- Person -->
<g id="node4" class="node"><title>Person</title>
<polygon fill="#ffffcc" stroke="black" points="0,-553 0,-699 174,-699 174,-553 0,-553"/>
<text text-anchor="middle" x="87" y="-687.8" font-family="Arial" font-size="8.00">Person</text>
<text text-anchor="middle" x="87" y="-677.8" font-family="Arial" font-size="8.00"> implements Autoid</text>
<polyline fill="none" stroke="black" points="0,-671 174,-671 "/>
<text text-anchor="start" x="8" y="-659.8" font-family="Arial" font-size="8.00">id : int*</text>
<text text-anchor="start" x="8" y="-649.8" font-family="Arial" font-size="8.00">name : string*</text>
<text text-anchor="start" x="8" y="-639.8" font-family="Arial" font-size="8.00">title : string</text>
<text text-anchor="start" x="8" y="-629.8" font-family="Arial" font-size="8.00">firstName : string</text>
<text text-anchor="start" x="8" y="-619.8" font-family="Arial" font-size="8.00">midInitials : string</text>
<text text-anchor="start" x="8" y="-609.8" font-family="Arial" font-size="8.00">lastName : string</text>
<text text-anchor="start" x="8" y="-599.8" font-family="Arial" font-size="8.00">email : email</text>
<text text-anchor="start" x="8" y="-589.8" font-family="Arial" font-size="8.00">phone : string</text>
<text text-anchor="start" x="8" y="-579.8" font-family="Arial" font-size="8.00">primaryAffilation : xref&#45;&gt;institute</text>
<text text-anchor="start" x="8" y="-569.8" font-family="Arial" font-size="8.00">affiliateInstitutions : mref&#45;&gt;institute</text>
<text text-anchor="start" x="8" y="-559.8" font-family="Arial" font-size="8.00">orcidPersonReference : xref&#45;&gt;ontologyTerm</text>
</g>
<!-- Citation -->
<g id="node5" class="node"><title>Citation</title>
<polygon fill="#ffffcc" stroke="black" points="272,-558 272,-694 420,-694 420,-558 272,-558"/>
<text text-anchor="middle" x="346" y="-682.8" font-family="Arial" font-size="8.00">Citation</text>
<text text-anchor="middle" x="346" y="-672.8" font-family="Arial" font-size="8.00"> implements Identifiable</text>
<polyline fill="none" stroke="black" points="272,-666 420,-666 "/>
<text text-anchor="start" x="280" y="-654.8" font-family="Arial" font-size="8.00">id : int*</text>
<text text-anchor="start" x="280" y="-644.8" font-family="Arial" font-size="8.00">identifier : string*</text>
<text text-anchor="start" x="280" y="-634.8" font-family="Arial" font-size="8.00">name : string*</text>
<text text-anchor="start" x="280" y="-624.8" font-family="Arial" font-size="8.00">pubmedID : string</text>
<text text-anchor="start" x="280" y="-614.8" font-family="Arial" font-size="8.00">dOI : string</text>
<text text-anchor="start" x="280" y="-604.8" font-family="Arial" font-size="8.00">ontologyTerms : mref&#45;&gt;ontologyTerm</text>
<text text-anchor="start" x="280" y="-594.8" font-family="Arial" font-size="8.00">authorList : text</text>
<text text-anchor="start" x="280" y="-584.8" font-family="Arial" font-size="8.00">title : string*</text>
<text text-anchor="start" x="280" y="-574.8" font-family="Arial" font-size="8.00">description : text*</text>
<text text-anchor="start" x="280" y="-564.8" font-family="Arial" font-size="8.00">status : xref&#45;&gt;ontologyTerm</text>
</g>
<!-- Contribution -->
<g id="node6" class="node"><title>Contribution</title>
<polygon fill="#ffffcc" stroke="black" points="67.5,-1 67.5,-117 198.5,-117 198.5,-1 67.5,-1"/>
<text text-anchor="middle" x="133" y="-105.8" font-family="Arial" font-size="8.00">Contribution</text>
<text text-anchor="middle" x="133" y="-95.8" font-family="Arial" font-size="8.00"> implements Identifiable</text>
<polyline fill="none" stroke="black" points="67.5,-89 198.5,-89 "/>
<text text-anchor="start" x="75.5" y="-77.8" font-family="Arial" font-size="8.00">id : int*</text>
<text text-anchor="start" x="75.5" y="-67.8" font-family="Arial" font-size="8.00">identifier : string*</text>
<text text-anchor="start" x="75.5" y="-57.8" font-family="Arial" font-size="8.00">name : string*</text>
<text text-anchor="start" x="75.5" y="-47.8" font-family="Arial" font-size="8.00">researcher : xref&#45;&gt;person*</text>
<text text-anchor="start" x="75.5" y="-37.8" font-family="Arial" font-size="8.00">submission : xref&#45;&gt;submission*</text>
<text text-anchor="start" x="75.5" y="-27.8" font-family="Arial" font-size="8.00">isSubmitter : enum*</text>
<text text-anchor="start" x="75.5" y="-17.8" font-family="Arial" font-size="8.00">isAuthor : enum*</text>
<text text-anchor="start" x="75.5" y="-7.8" font-family="Arial" font-size="8.00">isSource : enum*</text>
</g>
<!-- Submission -->
<g id="node7" class="node"><title>Submission</title>
<polygon fill="#ffffcc" stroke="black" points="127.5,-210 127.5,-296 232.5,-296 232.5,-210 127.5,-210"/>
<text text-anchor="middle" x="180" y="-284.8" font-family="Arial" font-size="8.00">Submission</text>
<text text-anchor="middle" x="180" y="-274.8" font-family="Arial" font-size="8.00"> implements Identifiable</text>
<polyline fill="none" stroke="black" points="127.5,-268 232.5,-268 "/>
<text text-anchor="start" x="135.5" y="-256.8" font-family="Arial" font-size="8.00">id : int*</text>
<text text-anchor="start" x="135.5" y="-246.8" font-family="Arial" font-size="8.00">identifier : string*</text>
<text text-anchor="start" x="135.5" y="-236.8" font-family="Arial" font-size="8.00">name : string*</text>
<text text-anchor="start" x="135.5" y="-226.8" font-family="Arial" font-size="8.00">timeCreated : datetime*</text>
<text text-anchor="start" x="135.5" y="-216.8" font-family="Arial" font-size="8.00">study : xref&#45;&gt;study*</text>
</g>
<!-- Investigation -->
<g id="node10" class="node"><title>Investigation</title>
<polygon fill="white" stroke="#808080" points="191.5,-608 191.5,-644 254.5,-644 254.5,-608 191.5,-608"/>
<text text-anchor="middle" x="223" y="-623.8" font-family="Arial" font-size="8.00">Investigation</text>
</g>
<!-- OntologyTerm -->
<g id="node13" class="node"><title>OntologyTerm</title>
<polygon fill="white" stroke="#808080" points="313,-772 313,-808 379,-808 379,-772 313,-772"/>
<text text-anchor="middle" x="346" y="-787.8" font-family="Arial" font-size="8.00">OntologyTerm</text>
</g>
<!-- Panel -->
<g id="node21" class="node"><title>Panel</title>
<polygon fill="white" stroke="#808080" points="294,-434 294,-470 348,-470 348,-434 294,-434"/>
<text text-anchor="middle" x="321" y="-449.8" font-family="Arial" font-size="8.00">Panel</text>
</g>
<!-- DataSet -->
<g id="node23" class="node"><title>DataSet</title>
<polygon fill="white" stroke="#808080" points="366,-434 366,-470 420,-470 420,-434 366,-434"/>
<text text-anchor="middle" x="393" y="-449.8" font-family="Arial" font-size="8.00">DataSet</text>
</g>
</g>
</svg>
