<?xml version="1.0" encoding="UTF-8" standalone="no"?>
<!DOCTYPE svg PUBLIC "-//W3C//DTD SVG 1.1//EN"
 "http://www.w3.org/Graphics/SVG/1.1/DTD/svg11.dtd">
<!-- Generated by graphviz version 2.26.3 (20100126.1600)
 -->
<!-- Title: G Pages: 1 -->
<svg width="465pt" height="672pt"
 viewBox="0.00 0.00 465.27 672.00" xmlns="http://www.w3.org/2000/svg" xmlns:xlink="http://www.w3.org/1999/xlink">
<g id="graph1" class="graph" transform="scale(1 1) rotate(0) translate(4 668)">
<title>G</title>
<polygon fill="lightyellow" stroke="lightyellow" points="-4,5 -4,-668 462.266,-668 462.266,5 -4,5"/>
<!-- Species&#45;&gt;OntologyTerm -->
<g id="edge2" class="edge"><title>Species&#45;&gt;OntologyTerm</title>
<path fill="none" stroke="black" d="M81.5618,-395.211C86.6887,-404.44 92.0617,-414.111 97.3105,-423.559"/>
<polygon fill="none" stroke="black" points="94.3766,-425.485 102.293,-432.527 100.496,-422.085 94.3766,-425.485"/>
</g>
<!-- Individual&#45;&gt;Individual -->
<g id="edge10" class="edge"><title>Individual&#45;&gt;Individual</title>
<path fill="none" stroke="black" d="M398.312,-329.292C408.726,-330.944 416,-335.18 416,-342 416,-347.435 411.381,-351.229 404.235,-353.382"/>
<polygon fill="black" stroke="black" points="398.312,-354.708 403.577,-350.762 401.239,-354.052 404.167,-353.397 404.167,-353.397 404.167,-353.397 401.239,-354.052 404.757,-356.032 398.312,-354.708 398.312,-354.708"/>
<text text-anchor="middle" x="408.079" y="-354.652" font-family="Bitstream Vera Sans" font-size="8.00">0..1</text>
<text text-anchor="middle" x="406.43" y="-332.931" font-family="Bitstream Vera Sans" font-size="8.00">*</text>
</g>
<!-- Individual&#45;&gt;Individual -->
<g id="edge12" class="edge"><title>Individual&#45;&gt;Individual</title>
<path fill="none" stroke="black" d="M398.29,-315.002C418.088,-314.86 434,-323.859 434,-342 434,-358.156 421.378,-367.062 404.631,-368.717"/>
<polygon fill="black" stroke="black" points="398.29,-368.998 404.165,-366.035 401.287,-368.865 404.284,-368.732 404.284,-368.732 404.284,-368.732 401.287,-368.865 404.404,-371.429 398.29,-368.998 398.29,-368.998"/>
<text text-anchor="middle" x="407.532" y="-370.618" font-family="Bitstream Vera Sans" font-size="8.00">0..1</text>
<text text-anchor="middle" x="407.178" y="-317.386" font-family="Bitstream Vera Sans" font-size="8.00">*</text>
</g>
<!-- Individual&#45;&gt;ObservationTarget -->
<g id="edge4" class="edge"><title>Individual&#45;&gt;ObservationTarget</title>
<path fill="none" stroke="black" d="M362.541,-395.211C371.647,-416.708 381.771,-440.607 389.345,-458.487"/>
<polygon fill="none" stroke="black" points="386.145,-459.905 393.268,-467.747 392.59,-457.174 386.145,-459.905"/>
</g>
<!-- Panel&#45;&gt;Species -->
<g id="edge16" class="edge"><title>Panel&#45;&gt;Species</title>
<path fill="none" stroke="black" d="M170.351,-242.945C150.276,-259.748 128.372,-278.08 108.927,-294.355"/>
<polygon fill="black" stroke="black" points="104.039,-298.446 106.907,-292.524 106.339,-296.52 108.64,-294.595 108.64,-294.595 108.64,-294.595 106.339,-296.52 110.373,-296.665 104.039,-298.446 104.039,-298.446"/>
<text text-anchor="middle" x="113.701" y="-293.67" font-family="Bitstream Vera Sans" font-size="8.00">0..1</text>
<text text-anchor="middle" x="160.689" y="-243.321" font-family="Bitstream Vera Sans" font-size="8.00">*</text>
</g>
<!-- Panel&#45;&gt;Individual -->
<g id="edge24" class="edge"><title>Panel&#45;&gt;Individual</title>
<path fill="none" stroke="black" d="M278.601,-251.082C285.832,-261.79 293.314,-272.869 300.462,-283.453"/>
<polygon fill="black" stroke="black" points="303.942,-288.606 298.346,-285.145 302.263,-286.12 300.584,-283.634 300.584,-283.634 300.584,-283.634 302.263,-286.12 302.821,-282.122 303.942,-288.606 303.942,-288.606"/>
<text text-anchor="middle" x="302.372" y="-276.53" font-family="Bitstream Vera Sans" font-size="8.00">*</text>
<text text-anchor="middle" x="280.171" y="-258.758" font-family="Bitstream Vera Sans" font-size="8.00">*</text>
</g>
<!-- Panel&#45;&gt;OntologyTerm -->
<g id="edge14" class="edge"><title>Panel&#45;&gt;OntologyTerm</title>
<path fill="none" stroke="black" d="M172.811,-251.109C164.199,-262.617 156.458,-275.094 151,-288 132.449,-331.867 128.372,-385.937 128.558,-426.484"/>
<polygon fill="black" stroke="black" points="128.619,-432.618 125.859,-426.645 128.589,-429.618 128.559,-426.618 128.559,-426.618 128.559,-426.618 128.589,-429.618 131.259,-426.591 128.619,-432.618 128.619,-432.618"/>
<text text-anchor="middle" x="132.755" y="-421.313" font-family="Bitstream Vera Sans" font-size="8.00">0..1</text>
<text text-anchor="middle" x="164.041" y="-253.712" font-family="Bitstream Vera Sans" font-size="8.00">*</text>
</g>
<!-- Panel&#45;&gt;ObservationTarget -->
<g id="edge6" class="edge"><title>Panel&#45;&gt;ObservationTarget</title>
<path fill="none" stroke="black" d="M301.654,-200.45C349.917,-213.409 412.241,-238.98 443,-288 476.875,-341.986 441.668,-418.862 418.263,-459.095"/>
<polygon fill="none" stroke="black" points="415.184,-457.424 413.047,-467.801 421.188,-461.022 415.184,-457.424"/>
</g>
<!-- PanelSource&#45;&gt;Panel -->
<g id="edge18" class="edge"><title>PanelSource&#45;&gt;Panel</title>
<path fill="none" stroke="black" d="M229.755,-87.2047C229.389,-97.1078 229.222,-107.881 229.254,-118.578"/>
<polygon fill="black" stroke="black" points="229.296,-124.861 226.556,-118.879 229.276,-121.861 229.256,-118.861 229.256,-118.861 229.256,-118.861 229.276,-121.861 231.956,-118.843 229.296,-124.861 229.296,-124.861"/>
<text text-anchor="middle" x="233.461" y="-113.57" font-family="Bitstream Vera Sans" font-size="8.00">1</text>
<text text-anchor="middle" x="225.217" y="-93.9161" font-family="Bitstream Vera Sans" font-size="8.00">*</text>
</g>
<!-- PanelSource&#45;&gt;Panel -->
<g id="edge20" class="edge"><title>PanelSource&#45;&gt;Panel</title>
<path fill="none" stroke="black" d="M242.245,-87.2047C242.611,-97.1078 242.778,-107.881 242.746,-118.578"/>
<polygon fill="black" stroke="black" points="242.704,-124.861 240.044,-118.843 242.724,-121.861 242.744,-118.861 242.744,-118.861 242.744,-118.861 242.724,-121.861 245.444,-118.879 242.704,-124.861 242.704,-124.861"/>
<text text-anchor="middle" x="246.991" y="-113.626" font-family="Bitstream Vera Sans" font-size="8.00">1</text>
<text text-anchor="middle" x="238.335" y="-94.2087" font-family="Bitstream Vera Sans" font-size="8.00">*</text>
</g>
<!-- OntologyTerm&#45;&gt;Ontology -->
<g id="edge22" class="edge"><title>OntologyTerm&#45;&gt;Ontology</title>
<path fill="none" stroke="black" d="M132,-539.345C132,-549.62 132,-560.343 132,-570.49"/>
<polygon fill="black" stroke="black" points="132,-576.724 129.3,-570.724 132,-573.724 132,-570.724 132,-570.724 132,-570.724 132,-573.724 134.7,-570.724 132,-576.724 132,-576.724"/>
<text text-anchor="middle" x="136.226" y="-565.461" font-family="Bitstream Vera Sans" font-size="8.00">0..1</text>
<text text-anchor="middle" x="127.774" y="-546.208" font-family="Bitstream Vera Sans" font-size="8.00">*</text>
</g>
<!-- Accession&#45;&gt;OntologyTerm -->
<g id="edge8" class="edge"><title>Accession&#45;&gt;OntologyTerm</title>
<path fill="none" stroke="black" d="M182.438,-395.211C177.311,-404.44 171.938,-414.111 166.69,-423.559"/>
<polygon fill="none" stroke="black" points="163.504,-422.085 161.707,-432.527 169.623,-425.485 163.504,-422.085"/>
</g>
<!-- Species -->
<g id="node1" class="node"><title>Species</title>
<polygon fill="#decbe4" stroke="black" points="0,-289 0,-395 104,-395 104,-289 0,-289"/>
<text text-anchor="middle" x="52" y="-383.8" font-family="Arial" font-size="8.00">Species</text>
<text text-anchor="middle" x="52" y="-373.8" font-family="Arial" font-size="8.00"> extends OntologyTerm</text>
<polyline fill="none" stroke="black" points="0,-367 104,-367 "/>
<text text-anchor="start" x="8" y="-355.8" font-family="Arial" font-size="8.00">id : int*</text>
<text text-anchor="start" x="8" y="-345.8" font-family="Arial" font-size="8.00">identifier : string*</text>
<text text-anchor="start" x="8" y="-335.8" font-family="Arial" font-size="8.00">name : string*</text>
<text text-anchor="start" x="8" y="-325.8" font-family="Arial" font-size="8.00">__Type : enum*</text>
<text text-anchor="start" x="8" y="-315.8" font-family="Arial" font-size="8.00">ontology : xref&#45;&gt;ontology</text>
<text text-anchor="start" x="8" y="-305.8" font-family="Arial" font-size="8.00">termAccession : string</text>
<text text-anchor="start" x="8" y="-295.8" font-family="Arial" font-size="8.00">definition : string</text>
</g>
<!-- Individual -->
<g id="node2" class="node"><title>Individual</title>
<polygon fill="#decbe4" stroke="black" points="282,-289 282,-395 398,-395 398,-289 282,-289"/>
<text text-anchor="middle" x="340" y="-383.8" font-family="Arial" font-size="8.00">Individual</text>
<text text-anchor="middle" x="340" y="-373.8" font-family="Arial" font-size="8.00"> extends ObservationTarget</text>
<polyline fill="none" stroke="black" points="282,-367 398,-367 "/>
<text text-anchor="start" x="290" y="-355.8" font-family="Arial" font-size="8.00">id : int*</text>
<text text-anchor="start" x="290" y="-345.8" font-family="Arial" font-size="8.00">identifier : string*</text>
<text text-anchor="start" x="290" y="-335.8" font-family="Arial" font-size="8.00">name : string*</text>
<text text-anchor="start" x="290" y="-325.8" font-family="Arial" font-size="8.00">__Type : enum*</text>
<text text-anchor="start" x="290" y="-315.8" font-family="Arial" font-size="8.00">description : text</text>
<text text-anchor="start" x="290" y="-305.8" font-family="Arial" font-size="8.00">mother : xref&#45;&gt;individual</text>
<text text-anchor="start" x="290" y="-295.8" font-family="Arial" font-size="8.00">father : xref&#45;&gt;individual</text>
</g>
<!-- Panel -->
<g id="node3" class="node"><title>Panel</title>
<polygon fill="#decbe4" stroke="black" points="170.5,-125 170.5,-251 301.5,-251 301.5,-125 170.5,-125"/>
<text text-anchor="middle" x="236" y="-239.8" font-family="Arial" font-size="8.00">Panel</text>
<text text-anchor="middle" x="236" y="-229.8" font-family="Arial" font-size="8.00"> extends ObservationTarget</text>
<polyline fill="none" stroke="black" points="170.5,-223 301.5,-223 "/>
<text text-anchor="start" x="178.5" y="-211.8" font-family="Arial" font-size="8.00">id : int*</text>
<text text-anchor="start" x="178.5" y="-201.8" font-family="Arial" font-size="8.00">identifier : string*</text>
<text text-anchor="start" x="178.5" y="-191.8" font-family="Arial" font-size="8.00">name : string*</text>
<text text-anchor="start" x="178.5" y="-181.8" font-family="Arial" font-size="8.00">__Type : enum*</text>
<text text-anchor="start" x="178.5" y="-171.8" font-family="Arial" font-size="8.00">description : text</text>
<text text-anchor="start" x="178.5" y="-161.8" font-family="Arial" font-size="8.00">panelType : xref&#45;&gt;ontologyTerm</text>
<text text-anchor="start" x="178.5" y="-151.8" font-family="Arial" font-size="8.00">numberOfIndividuals : int*</text>
<text text-anchor="start" x="178.5" y="-141.8" font-family="Arial" font-size="8.00">species : xref&#45;&gt;species</text>
<text text-anchor="start" x="178.5" y="-131.8" font-family="Arial" font-size="8.00">individuals : mref&#45;&gt;individual</text>
</g>
<!-- PanelSource -->
<g id="node4" class="node"><title>PanelSource</title>
<polygon fill="#decbe4" stroke="black" points="177,-1 177,-87 295,-87 295,-1 177,-1"/>
<text text-anchor="middle" x="236" y="-75.8" font-family="Arial" font-size="8.00">PanelSource</text>
<text text-anchor="middle" x="236" y="-65.8" font-family="Arial" font-size="8.00"> implements Autoid</text>
<polyline fill="none" stroke="black" points="177,-59 295,-59 "/>
<text text-anchor="start" x="185" y="-47.8" font-family="Arial" font-size="8.00">id : int*</text>
<text text-anchor="start" x="185" y="-37.8" font-family="Arial" font-size="8.00">currentPanel : xref&#45;&gt;panel*</text>
<text text-anchor="start" x="185" y="-27.8" font-family="Arial" font-size="8.00">sourcePanel : xref&#45;&gt;panel*</text>
<text text-anchor="start" x="185" y="-17.8" font-family="Arial" font-size="8.00">numberOfIndividuals : int</text>
<text text-anchor="start" x="185" y="-7.8" font-family="Arial" font-size="8.00">selectionCriteria : text*</text>
</g>
<!-- Ontology -->
<g id="node5" class="node"><title>Ontology</title>
<polygon fill="#decbe4" stroke="black" points="77,-577 77,-663 187,-663 187,-577 77,-577"/>
<text text-anchor="middle" x="132" y="-651.8" font-family="Arial" font-size="8.00">Ontology</text>
<text text-anchor="middle" x="132" y="-641.8" font-family="Arial" font-size="8.00"> implements Identifiable</text>
<polyline fill="none" stroke="black" points="77,-635 187,-635 "/>
<text text-anchor="start" x="85" y="-623.8" font-family="Arial" font-size="8.00">id : int*</text>
<text text-anchor="start" x="85" y="-613.8" font-family="Arial" font-size="8.00">identifier : string*</text>
<text text-anchor="start" x="85" y="-603.8" font-family="Arial" font-size="8.00">name : string*</text>
<text text-anchor="start" x="85" y="-593.8" font-family="Arial" font-size="8.00">ontologyAccession : string</text>
<text text-anchor="start" x="85" y="-583.8" font-family="Arial" font-size="8.00">ontologyURI : hyperlink</text>
</g>
<!-- OntologyTerm -->
<g id="node6" class="node"><title>OntologyTerm</title>
<polygon fill="#decbe4" stroke="black" points="79.5,-433 79.5,-539 184.5,-539 184.5,-433 79.5,-433"/>
<text text-anchor="middle" x="132" y="-527.8" font-family="Arial" font-size="8.00">OntologyTerm</text>
<text text-anchor="middle" x="132" y="-517.8" font-family="Arial" font-size="8.00"> implements Identifiable</text>
<polyline fill="none" stroke="black" points="79.5,-511 184.5,-511 "/>
<text text-anchor="start" x="87.5" y="-499.8" font-family="Arial" font-size="8.00">id : int*</text>
<text text-anchor="start" x="87.5" y="-489.8" font-family="Arial" font-size="8.00">identifier : string*</text>
<text text-anchor="start" x="87.5" y="-479.8" font-family="Arial" font-size="8.00">name : string*</text>
<text text-anchor="start" x="87.5" y="-469.8" font-family="Arial" font-size="8.00">__Type : enum*</text>
<text text-anchor="start" x="87.5" y="-459.8" font-family="Arial" font-size="8.00">ontology : xref&#45;&gt;ontology</text>
<text text-anchor="start" x="87.5" y="-449.8" font-family="Arial" font-size="8.00">termAccession : string</text>
<text text-anchor="start" x="87.5" y="-439.8" font-family="Arial" font-size="8.00">definition : string</text>
</g>
<!-- Accession -->
<g id="node7" class="node"><title>Accession</title>
<polygon fill="#decbe4" stroke="black" points="160,-289 160,-395 264,-395 264,-289 160,-289"/>
<text text-anchor="middle" x="212" y="-383.8" font-family="Arial" font-size="8.00">Accession</text>
<text text-anchor="middle" x="212" y="-373.8" font-family="Arial" font-size="8.00"> extends OntologyTerm</text>
<polyline fill="none" stroke="black" points="160,-367 264,-367 "/>
<text text-anchor="start" x="168" y="-355.8" font-family="Arial" font-size="8.00">id : int*</text>
<text text-anchor="start" x="168" y="-345.8" font-family="Arial" font-size="8.00">identifier : string*</text>
<text text-anchor="start" x="168" y="-335.8" font-family="Arial" font-size="8.00">name : string*</text>
<text text-anchor="start" x="168" y="-325.8" font-family="Arial" font-size="8.00">__Type : enum*</text>
<text text-anchor="start" x="168" y="-315.8" font-family="Arial" font-size="8.00">ontology : xref&#45;&gt;ontology</text>
<text text-anchor="start" x="168" y="-305.8" font-family="Arial" font-size="8.00">termAccession : string</text>
<text text-anchor="start" x="168" y="-295.8" font-family="Arial" font-size="8.00">definition : string</text>
</g>
<!-- ObservationTarget -->
<g id="node10" class="node"><title>ObservationTarget</title>
<polygon fill="white" stroke="#808080" points="359.5,-468 359.5,-504 442.5,-504 442.5,-468 359.5,-468"/>
<text text-anchor="middle" x="401" y="-483.8" font-family="Arial" font-size="8.00">ObservationTarget</text>
</g>
</g>
</svg>
