<?xml version="1.0" encoding="UTF-8" standalone="no"?>
<!DOCTYPE svg PUBLIC "-//W3C//DTD SVG 1.1//EN"
 "http://www.w3.org/Graphics/SVG/1.1/DTD/svg11.dtd">
<!-- Generated by graphviz version 2.26.3 (20100126.1600)
 -->
<!-- Title: G Pages: 1 -->
<svg width="1454pt" height="978pt"
 viewBox="0.00 0.00 1454.00 978.00" xmlns="http://www.w3.org/2000/svg" xmlns:xlink="http://www.w3.org/1999/xlink">
<g id="graph1" class="graph" transform="scale(1 1) rotate(0) translate(4 974)">
<title>G</title>
<polygon fill="lightyellow" stroke="lightyellow" points="-4,5 -4,-974 1451,-974 1451,5 -4,5"/>
<!-- StudyDetails&#45;&gt;Study -->
<g id="edge26" class="edge"><title>StudyDetails&#45;&gt;Study</title>
<path fill="none" stroke="black" d="M1045.79,-651.257C1020.86,-695.226 994.677,-741.417 979.369,-768.418"/>
<polygon fill="black" stroke="black" points="976.272,-773.881 976.883,-767.33 977.752,-771.271 979.231,-768.661 979.231,-768.661 979.231,-768.661 977.752,-771.271 981.58,-769.993 976.272,-773.881 976.272,-773.881"/>
<text text-anchor="middle" x="984.418" y="-765.881" font-family="Bitstream Vera Sans" font-size="8.00">1</text>
<text text-anchor="middle" x="1037.64" y="-654.857" font-family="Bitstream Vera Sans" font-size="8.00">*</text>
</g>
<!-- StudyDetails&#45;&gt;Citation -->
<g id="edge28" class="edge"><title>StudyDetails&#45;&gt;Citation</title>
<path fill="none" stroke="black" d="M1103.29,-651.257C1103.06,-694.858 1103.91,-740.644 1105.83,-767.736"/>
<polygon fill="black" stroke="black" points="1106.31,-773.881 1103.15,-768.111 1106.08,-770.89 1105.84,-767.899 1105.84,-767.899 1105.84,-767.899 1106.08,-770.89 1108.53,-767.688 1106.31,-773.881 1106.31,-773.881"/>
<text text-anchor="middle" x="1109.81" y="-762.315" font-family="Bitstream Vera Sans" font-size="8.00">0..1</text>
<text text-anchor="middle" x="1099.03" y="-658.109" font-family="Bitstream Vera Sans" font-size="8.00">*</text>
</g>
<!-- StudyDetails&#45;&gt;Citation -->
<g id="edge56" class="edge"><title>StudyDetails&#45;&gt;Citation</title>
<path fill="none" stroke="black" d="M1116.71,-651.257C1116.94,-694.858 1116.09,-740.644 1114.17,-767.736"/>
<polygon fill="black" stroke="black" points="1113.69,-773.881 1111.47,-767.688 1113.92,-770.89 1114.16,-767.899 1114.16,-767.899 1114.16,-767.899 1113.92,-770.89 1116.85,-768.111 1113.69,-773.881 1113.69,-773.881"/>
<text text-anchor="middle" x="1118.61" y="-762.976" font-family="Bitstream Vera Sans" font-size="8.00">*</text>
<text text-anchor="middle" x="1112.51" y="-658.132" font-family="Bitstream Vera Sans" font-size="8.00">*</text>
</g>
<!-- FrequencyCluster&#45;&gt;UsedMarkerSet -->
<g id="edge32" class="edge"><title>FrequencyCluster&#45;&gt;UsedMarkerSet</title>
<path fill="none" stroke="black" d="M617.966,-616.703C602.97,-629.333 586.98,-641.639 571,-652 538.285,-673.212 521.362,-663.539 491,-688 479.978,-696.879 469.718,-707.687 460.512,-718.936"/>
<polygon fill="black" stroke="black" points="456.632,-723.779 458.276,-717.409 458.508,-721.438 460.383,-719.097 460.383,-719.097 460.383,-719.097 458.508,-721.438 462.491,-720.785 456.632,-723.779 456.632,-723.779"/>
<text text-anchor="middle" x="465.597" y="-717.148" font-family="Bitstream Vera Sans" font-size="8.00">1</text>
<text text-anchor="middle" x="608.3" y="-617.064" font-family="Bitstream Vera Sans" font-size="8.00">*</text>
</g>
<!-- FrequencyCluster&#45;&gt;DataSet -->
<g id="edge2" class="edge"><title>FrequencyCluster&#45;&gt;DataSet</title>
<path fill="none" stroke="black" d="M692.407,-636.203C691.902,-681.908 692.618,-732.866 694.556,-763.67"/>
<polygon fill="none" stroke="black" points="691.069,-763.967 695.293,-773.683 698.05,-763.454 691.069,-763.967"/>
</g>
<!-- FrequencyCluster&#45;&gt;DataSet -->
<g id="edge30" class="edge"><title>FrequencyCluster&#45;&gt;DataSet</title>
<path fill="none" stroke="black" d="M705.593,-636.203C706.121,-683.904 705.317,-737.326 703.183,-767.588"/>
<polygon fill="black" stroke="black" points="702.707,-773.683 700.482,-767.492 702.941,-770.693 703.174,-767.702 703.174,-767.702 703.174,-767.702 702.941,-770.693 705.866,-767.912 702.707,-773.683 702.707,-773.683"/>
<text text-anchor="middle" x="707.626" y="-762.777" font-family="Bitstream Vera Sans" font-size="8.00">0..1</text>
<text text-anchor="middle" x="701.441" y="-643.1" font-family="Bitstream Vera Sans" font-size="8.00">*</text>
</g>
<!-- GenotypeFrequency&#45;&gt;FrequencyCluster -->
<g id="edge34" class="edge"><title>GenotypeFrequency&#45;&gt;FrequencyCluster</title>
<path fill="none" stroke="black" d="M836.609,-272.059C811.718,-320.163 779.51,-382.408 752.512,-434.584"/>
<polygon fill="black" stroke="black" points="749.749,-439.923 750.108,-433.354 751.128,-437.259 752.506,-434.594 752.506,-434.594 752.506,-434.594 751.128,-437.259 754.904,-435.835 749.749,-439.923 749.749,-439.923"/>
<text text-anchor="middle" x="757.668" y="-431.616" font-family="Bitstream Vera Sans" font-size="8.00">0..1</text>
<text text-anchor="middle" x="828.691" y="-275.966" font-family="Bitstream Vera Sans" font-size="8.00">*</text>
</g>
<!-- GenotypeFrequency&#45;&gt;DataSet -->
<g id="edge4" class="edge"><title>GenotypeFrequency&#45;&gt;DataSet</title>
<path fill="none" stroke="black" d="M933.148,-272.272C994.526,-368.353 1074.7,-533.142 999,-652 995.143,-658.056 814.432,-739.998 735.38,-775.636"/>
<polygon fill="none" stroke="black" points="733.942,-772.446 726.262,-779.745 736.817,-778.828 733.942,-772.446"/>
</g>
<!-- AlleleFrequency&#45;&gt;FrequencyCluster -->
<g id="edge36" class="edge"><title>AlleleFrequency&#45;&gt;FrequencyCluster</title>
<path fill="none" stroke="black" d="M638.424,-267.375C649.269,-315.825 663.644,-380.044 675.668,-433.765"/>
<polygon fill="black" stroke="black" points="677.048,-439.928 673.102,-434.662 676.392,-437 675.737,-434.073 675.737,-434.073 675.737,-434.073 676.392,-437 678.372,-433.483 677.048,-439.928 677.048,-439.928"/>
<text text-anchor="middle" x="679.192" y="-427.96" font-family="Bitstream Vera Sans" font-size="8.00">0..1</text>
<text text-anchor="middle" x="636.28" y="-274.942" font-family="Bitstream Vera Sans" font-size="8.00">*</text>
</g>
<!-- AlleleFrequency&#45;&gt;DataSet -->
<g id="edge6" class="edge"><title>AlleleFrequency&#45;&gt;DataSet</title>
<path fill="none" stroke="black" d="M611.238,-267.453C596.233,-379.668 574.515,-587.565 609,-652 622.61,-677.431 645.36,-665.178 663,-688 680.249,-710.316 689.576,-741.477 694.381,-763.862"/>
<polygon fill="none" stroke="black" points="690.966,-764.635 696.337,-773.767 697.833,-763.278 690.966,-764.635"/>
</g>
<!-- PhenotypeProperty&#45;&gt;ObservableFeature -->
<g id="edge8" class="edge"><title>PhenotypeProperty&#45;&gt;ObservableFeature</title>
<path fill="none" stroke="black" d="M303.237,-855.298C316.139,-879.153 330.142,-905.041 340.326,-923.87"/>
<polygon fill="none" stroke="black" points="337.301,-925.634 345.137,-932.764 343.458,-922.303 337.301,-925.634"/>
</g>
<!-- PhenotypeMethod&#45;&gt;PhenotypeProperty -->
<g id="edge40" class="edge"><title>PhenotypeMethod&#45;&gt;PhenotypeProperty</title>
<path fill="none" stroke="black" d="M837.108,-616.008C823.009,-630.262 806.782,-643.345 789,-652 698.399,-696.098 423.652,-636.575 337,-688 322.46,-696.629 310.45,-709.722 300.782,-723.737"/>
<polygon fill="black" stroke="black" points="297.326,-728.936 298.4,-722.445 298.987,-726.438 300.648,-723.939 300.648,-723.939 300.648,-723.939 298.987,-726.438 302.897,-725.434 297.326,-728.936 297.326,-728.936"/>
<text text-anchor="middle" x="305.863" y="-721.528" font-family="Bitstream Vera Sans" font-size="8.00">1</text>
<text text-anchor="middle" x="827.689" y="-617.168" font-family="Bitstream Vera Sans" font-size="8.00">*</text>
</g>
<!-- PhenotypeMethod&#45;&gt;DataSet -->
<g id="edge10" class="edge"><title>PhenotypeMethod&#45;&gt;DataSet</title>
<path fill="none" stroke="black" d="M833.902,-616.281C794.804,-667.21 746.247,-730.458 719.347,-765.496"/>
<polygon fill="none" stroke="black" points="716.307,-763.709 712.994,-773.772 721.86,-767.971 716.307,-763.709"/>
</g>
<!-- PhenotypeMethod&#45;&gt;Study -->
<g id="edge38" class="edge"><title>PhenotypeMethod&#45;&gt;Study</title>
<path fill="none" stroke="black" d="M916.19,-616.281C930.932,-668.289 949.316,-733.144 959.108,-767.685"/>
<polygon fill="black" stroke="black" points="960.833,-773.772 956.599,-768.736 960.015,-770.886 959.197,-767.999 959.197,-767.999 959.197,-767.999 960.015,-770.886 961.794,-767.263 960.833,-773.772 960.833,-773.772"/>
<text text-anchor="middle" x="962.427" y="-761.7" font-family="Bitstream Vera Sans" font-size="8.00">1</text>
<text text-anchor="middle" x="914.596" y="-623.953" font-family="Bitstream Vera Sans" font-size="8.00">*</text>
</g>
<!-- PhenotypeValue&#45;&gt;PhenotypeProperty -->
<g id="edge42" class="edge"><title>PhenotypeValue&#45;&gt;PhenotypeProperty</title>
<path fill="none" stroke="black" d="M159.436,-631.138C180.317,-661.794 203.131,-695.291 222.509,-723.742"/>
<polygon fill="black" stroke="black" points="226.087,-728.994 220.477,-725.555 224.398,-726.515 222.709,-724.035 222.709,-724.035 222.709,-724.035 224.398,-726.515 224.941,-722.515 226.087,-728.994 226.087,-728.994"/>
<text text-anchor="middle" x="224.478" y="-716.925" font-family="Bitstream Vera Sans" font-size="8.00">1</text>
<text text-anchor="middle" x="161.045" y="-638.808" font-family="Bitstream Vera Sans" font-size="8.00">*</text>
</g>
<!-- PhenotypeValue&#45;&gt;ObservedValue -->
<g id="edge12" class="edge"><title>PhenotypeValue&#45;&gt;ObservedValue</title>
<path fill="none" stroke="black" d="M96,-631.138C96,-677.999 96,-731.496 96,-763.467"/>
<polygon fill="none" stroke="black" points="92.5001,-763.832 96,-773.832 99.5001,-763.832 92.5001,-763.832"/>
</g>
<!-- SamplePanel&#45;&gt;Panel -->
<g id="edge14" class="edge"><title>SamplePanel&#45;&gt;Panel</title>
<path fill="none" stroke="black" d="M1293.9,-367.725C1290.89,-374.572 1287.92,-381.35 1285,-388 1266.19,-430.831 1244.32,-480.517 1231.08,-510.587"/>
<polygon fill="none" stroke="black" points="1227.76,-509.432 1226.93,-519.994 1234.17,-512.254 1227.76,-509.432"/>
</g>
<!-- SamplePanel&#45;&gt;OntologyTerm -->
<g id="edge44" class="edge"><title>SamplePanel&#45;&gt;OntologyTerm</title>
<path fill="none" stroke="black" d="M1370,-387.117C1370,-437.592 1370,-485.605 1370,-513.41"/>
<polygon fill="black" stroke="black" points="1370,-519.699 1367.3,-513.699 1370,-516.699 1370,-513.699 1370,-513.699 1370,-513.699 1370,-516.699 1372.7,-513.699 1370,-519.699 1370,-519.699"/>
<text text-anchor="middle" x="1374.23" y="-508.436" font-family="Bitstream Vera Sans" font-size="8.00">0..1</text>
<text text-anchor="middle" x="1365.77" y="-393.98" font-family="Bitstream Vera Sans" font-size="8.00">*</text>
</g>
<!-- AssayedPanel&#45;&gt;Panel -->
<g id="edge16" class="edge"><title>AssayedPanel&#45;&gt;Panel</title>
<path fill="none" stroke="black" d="M1109.28,-292.115C1120.9,-323.749 1135.61,-358.29 1153,-388 1163.52,-405.974 1173.01,-405.725 1183,-424 1198,-451.444 1207.82,-486.082 1213.35,-509.934"/>
<polygon fill="none" stroke="black" points="1209.95,-510.751 1215.53,-519.756 1216.78,-509.235 1209.95,-510.751"/>
</g>
<!-- GWASExperiment&#45;&gt;Experiment -->
<g id="edge18" class="edge"><title>GWASExperiment&#45;&gt;Experiment</title>
<path fill="none" stroke="black" d="M508.724,-895.39C501.82,-905.844 495.318,-915.69 489.758,-924.109"/>
<polygon fill="none" stroke="black" points="486.712,-922.371 484.122,-932.644 492.553,-926.228 486.712,-922.371"/>
</g>
<!-- UsedMarkerSet&#45;&gt;ObservableFeature -->
<g id="edge20" class="edge"><title>UsedMarkerSet&#45;&gt;ObservableFeature</title>
<path fill="none" stroke="black" d="M388.636,-860.353C380.438,-882.446 371.805,-905.711 365.338,-923.139"/>
<polygon fill="none" stroke="black" points="361.998,-922.08 361.8,-932.673 368.561,-924.516 361.998,-922.08"/>
</g>
<!-- UsedMarkerSet&#45;&gt;Experiment -->
<g id="edge46" class="edge"><title>UsedMarkerSet&#45;&gt;Experiment</title>
<path fill="none" stroke="black" d="M438.934,-860.353C447.595,-884.098 456.751,-909.196 463.226,-926.948"/>
<polygon fill="black" stroke="black" points="465.315,-932.673 460.722,-927.962 464.287,-929.855 463.259,-927.037 463.259,-927.037 463.259,-927.037 464.287,-929.855 465.795,-926.111 465.315,-932.673 465.315,-932.673"/>
<text text-anchor="middle" x="466.179" y="-920.511" font-family="Bitstream Vera Sans" font-size="8.00">0..1</text>
<text text-anchor="middle" x="438.069" y="-868.116" font-family="Bitstream Vera Sans" font-size="8.00">*</text>
</g>
<!-- Significance&#45;&gt;UsedMarkerSet -->
<g id="edge48" class="edge"><title>Significance&#45;&gt;UsedMarkerSet</title>
<path fill="none" stroke="black" d="M457.044,-621.169C449.183,-652.366 440.309,-687.585 432.67,-717.905"/>
<polygon fill="black" stroke="black" points="431.159,-723.901 430.007,-717.423 431.892,-720.992 432.625,-718.083 432.625,-718.083 432.625,-718.083 431.892,-720.992 435.243,-718.743 431.159,-723.901 431.159,-723.901"/>
<text text-anchor="middle" x="437.471" y="-713.946" font-family="Bitstream Vera Sans" font-size="8.00">1</text>
<text text-anchor="middle" x="450.732" y="-626.725" font-family="Bitstream Vera Sans" font-size="8.00">*</text>
</g>
<!-- Significance&#45;&gt;DataSet -->
<g id="edge22" class="edge"><title>Significance&#45;&gt;DataSet</title>
<path fill="none" stroke="black" d="M541.182,-621.168C552.001,-632.419 563.737,-643.124 576,-652 609.898,-676.536 634.297,-657.549 663,-688 682.573,-708.765 691.561,-740.697 695.653,-763.7"/>
<polygon fill="none" stroke="black" points="692.242,-764.542 697.251,-773.877 699.157,-763.456 692.242,-764.542"/>
</g>
<!-- EffectSize&#45;&gt;UsedMarkerSet -->
<g id="edge50" class="edge"><title>EffectSize&#45;&gt;UsedMarkerSet</title>
<path fill="none" stroke="black" d="M330.291,-616.281C345.783,-648.8 363.667,-686.342 378.918,-718.356"/>
<polygon fill="black" stroke="black" points="381.537,-723.854 376.519,-719.599 380.247,-721.146 378.956,-718.438 378.956,-718.438 378.956,-718.438 380.247,-721.146 381.394,-717.276 381.537,-723.854 381.537,-723.854"/>
<text text-anchor="middle" x="381.455" y="-711.655" font-family="Bitstream Vera Sans" font-size="8.00">0..1</text>
<text text-anchor="middle" x="330.374" y="-624.081" font-family="Bitstream Vera Sans" font-size="8.00">*</text>
</g>
<!-- EffectSize&#45;&gt;DataSet -->
<g id="edge24" class="edge"><title>EffectSize&#45;&gt;DataSet</title>
<path fill="none" stroke="black" d="M342.498,-616.158C354.753,-630.126 369.021,-643.056 385,-652 493.715,-712.852 566.373,-609.354 663,-688 685.59,-706.386 694.042,-739.753 697.183,-763.739"/>
<polygon fill="none" stroke="black" points="693.704,-764.126 698.257,-773.693 700.664,-763.375 693.704,-764.126"/>
</g>
<!-- SelectionCriteria&#45;&gt;Panel -->
<g id="edge52" class="edge"><title>SelectionCriteria&#45;&gt;Panel</title>
<path fill="none" stroke="black" d="M1214.34,-237.22C1211.26,-310.197 1211.58,-455.545 1215.31,-513.406"/>
<polygon fill="black" stroke="black" points="1215.75,-519.697 1212.63,-513.903 1215.54,-516.704 1215.33,-513.712 1215.33,-513.712 1215.33,-513.712 1215.54,-516.704 1218.02,-513.521 1215.75,-519.697 1215.75,-519.697"/>
<text text-anchor="middle" x="1219.33" y="-508.158" font-family="Bitstream Vera Sans" font-size="8.00">1</text>
<text text-anchor="middle" x="1209.81" y="-243.932" font-family="Bitstream Vera Sans" font-size="8.00">*</text>
</g>
<!-- SelectionCriteria&#45;&gt;Panel -->
<g id="edge54" class="edge"><title>SelectionCriteria&#45;&gt;Panel</title>
<path fill="none" stroke="black" d="M1223.66,-237.22C1226.74,-310.197 1226.42,-455.545 1222.69,-513.406"/>
<polygon fill="black" stroke="black" points="1222.25,-519.697 1219.98,-513.521 1222.46,-516.704 1222.67,-513.712 1222.67,-513.712 1222.67,-513.712 1222.46,-516.704 1225.37,-513.903 1222.25,-519.697 1222.25,-519.697"/>
<text text-anchor="middle" x="1227.1" y="-508.755" font-family="Bitstream Vera Sans" font-size="8.00">1</text>
<text text-anchor="middle" x="1219.75" y="-244.222" font-family="Bitstream Vera Sans" font-size="8.00">*</text>
</g>
<!-- Investigation -->
<g id="node1" class="node"><title>Investigation</title>
<polygon fill="#e5d8bd" stroke="black" points="413.5,-141 413.5,-247 518.5,-247 518.5,-141 413.5,-141"/>
<text text-anchor="middle" x="466" y="-235.8" font-family="Arial" font-size="8.00">Investigation</text>
<text text-anchor="middle" x="466" y="-225.8" font-family="Arial" font-size="8.00"> implements Identifiable</text>
<polyline fill="none" stroke="black" points="413.5,-219 518.5,-219 "/>
<text text-anchor="start" x="421.5" y="-207.8" font-family="Arial" font-size="8.00">id : int*</text>
<text text-anchor="start" x="421.5" y="-197.8" font-family="Arial" font-size="8.00">identifier : string*</text>
<text text-anchor="start" x="421.5" y="-187.8" font-family="Arial" font-size="8.00">name : string*</text>
<text text-anchor="start" x="421.5" y="-177.8" font-family="Arial" font-size="8.00">title : text</text>
<text text-anchor="start" x="421.5" y="-167.8" font-family="Arial" font-size="8.00">shortName : text</text>
<text text-anchor="start" x="421.5" y="-157.8" font-family="Arial" font-size="8.00">version : string</text>
<text text-anchor="start" x="421.5" y="-147.8" font-family="Arial" font-size="8.00">background : text</text>
</g>
<!-- StudyDetails -->
<g id="node2" class="node"><title>StudyDetails</title>
<polygon fill="#e5d8bd" stroke="black" points="1046,-425 1046,-651 1174,-651 1174,-425 1046,-425"/>
<text text-anchor="middle" x="1110" y="-639.8" font-family="Arial" font-size="8.00">StudyDetails</text>
<text text-anchor="middle" x="1110" y="-629.8" font-family="Arial" font-size="8.00"> implements Autoid</text>
<polyline fill="none" stroke="black" points="1046,-623 1174,-623 "/>
<text text-anchor="start" x="1054" y="-611.8" font-family="Arial" font-size="8.00">id : int*</text>
<text text-anchor="start" x="1054" y="-601.8" font-family="Arial" font-size="8.00">study : xref&#45;&gt;study*</text>
<text text-anchor="start" x="1054" y="-591.8" font-family="Arial" font-size="8.00">title : text</text>
<text text-anchor="start" x="1054" y="-581.8" font-family="Arial" font-size="8.00">shortName : text</text>
<text text-anchor="start" x="1054" y="-571.8" font-family="Arial" font-size="8.00">studyAbstract : text*</text>
<text text-anchor="start" x="1054" y="-561.8" font-family="Arial" font-size="8.00">version : string</text>
<text text-anchor="start" x="1054" y="-551.8" font-family="Arial" font-size="8.00">background : text</text>
<text text-anchor="start" x="1054" y="-541.8" font-family="Arial" font-size="8.00">objectives : text</text>
<text text-anchor="start" x="1054" y="-531.8" font-family="Arial" font-size="8.00">keyResults : text</text>
<text text-anchor="start" x="1054" y="-521.8" font-family="Arial" font-size="8.00">conclusions : text</text>
<text text-anchor="start" x="1054" y="-511.8" font-family="Arial" font-size="8.00">studyDesign : text</text>
<text text-anchor="start" x="1054" y="-501.8" font-family="Arial" font-size="8.00">studySizeReason : text</text>
<text text-anchor="start" x="1054" y="-491.8" font-family="Arial" font-size="8.00">studyPower : text</text>
<text text-anchor="start" x="1054" y="-481.8" font-family="Arial" font-size="8.00">sourcesOfBias : text</text>
<text text-anchor="start" x="1054" y="-471.8" font-family="Arial" font-size="8.00">limitations : text</text>
<text text-anchor="start" x="1054" y="-461.8" font-family="Arial" font-size="8.00">acknowledgements : text</text>
<text text-anchor="start" x="1054" y="-451.8" font-family="Arial" font-size="8.00">primaryCitation : xref&#45;&gt;citation</text>
<text text-anchor="start" x="1054" y="-441.8" font-family="Arial" font-size="8.00">otherCitations : mref&#45;&gt;citation</text>
<text text-anchor="start" x="1054" y="-431.8" font-family="Arial" font-size="8.00">accession : hyperlink</text>
</g>
<!-- FrequencyCluster -->
<g id="node3" class="node"><title>FrequencyCluster</title>
<polygon fill="#e5d8bd" stroke="black" points="618,-440 618,-636 780,-636 780,-440 618,-440"/>
<text text-anchor="middle" x="699" y="-624.8" font-family="Arial" font-size="8.00">FrequencyCluster</text>
<text text-anchor="middle" x="699" y="-614.8" font-family="Arial" font-size="8.00"> extends DataSet</text>
<polyline fill="none" stroke="black" points="618,-608 780,-608 "/>
<text text-anchor="start" x="626" y="-596.8" font-family="Arial" font-size="8.00">id : int*</text>
<text text-anchor="start" x="626" y="-586.8" font-family="Arial" font-size="8.00">identifier : string*</text>
<text text-anchor="start" x="626" y="-576.8" font-family="Arial" font-size="8.00">name : string*</text>
<text text-anchor="start" x="626" y="-566.8" font-family="Arial" font-size="8.00">__Type : enum*</text>
<text text-anchor="start" x="626" y="-556.8" font-family="Arial" font-size="8.00">description : text</text>
<text text-anchor="start" x="626" y="-546.8" font-family="Arial" font-size="8.00">protocolUsed : xref&#45;&gt;protocol</text>
<text text-anchor="start" x="626" y="-536.8" font-family="Arial" font-size="8.00">startTime : datetime*</text>
<text text-anchor="start" x="626" y="-526.8" font-family="Arial" font-size="8.00">endTime : datetime</text>
<text text-anchor="start" x="626" y="-516.8" font-family="Arial" font-size="8.00">dataSet : xref&#45;&gt;dataSet</text>
<text text-anchor="start" x="626" y="-506.8" font-family="Arial" font-size="8.00">usedMarkerSet : xref&#45;&gt;usedMarkerSet*</text>
<text text-anchor="start" x="626" y="-496.8" font-family="Arial" font-size="8.00">markerID : int*</text>
<text text-anchor="start" x="626" y="-486.8" font-family="Arial" font-size="8.00">numberOfGenotypedSamples : int*</text>
<text text-anchor="start" x="626" y="-476.8" font-family="Arial" font-size="8.00">pValueHWE : decimal</text>
<text text-anchor="start" x="626" y="-466.8" font-family="Arial" font-size="8.00">unadjustedPValue : decimal</text>
<text text-anchor="start" x="626" y="-456.8" font-family="Arial" font-size="8.00">oddsRatioStatement : string</text>
<text text-anchor="start" x="626" y="-446.8" font-family="Arial" font-size="8.00">attributableRiskStatement : string</text>
</g>
<!-- GenotypeFrequency -->
<g id="node4" class="node"><title>GenotypeFrequency</title>
<polygon fill="#e5d8bd" stroke="black" points="790.5,-116 790.5,-272 963.5,-272 963.5,-116 790.5,-116"/>
<text text-anchor="middle" x="877" y="-260.8" font-family="Arial" font-size="8.00">GenotypeFrequency</text>
<text text-anchor="middle" x="877" y="-250.8" font-family="Arial" font-size="8.00"> extends DataSet</text>
<polyline fill="none" stroke="black" points="790.5,-244 963.5,-244 "/>
<text text-anchor="start" x="798.5" y="-232.8" font-family="Arial" font-size="8.00">id : int*</text>
<text text-anchor="start" x="798.5" y="-222.8" font-family="Arial" font-size="8.00">identifier : string*</text>
<text text-anchor="start" x="798.5" y="-212.8" font-family="Arial" font-size="8.00">name : string*</text>
<text text-anchor="start" x="798.5" y="-202.8" font-family="Arial" font-size="8.00">__Type : enum*</text>
<text text-anchor="start" x="798.5" y="-192.8" font-family="Arial" font-size="8.00">description : text</text>
<text text-anchor="start" x="798.5" y="-182.8" font-family="Arial" font-size="8.00">protocolUsed : xref&#45;&gt;protocol</text>
<text text-anchor="start" x="798.5" y="-172.8" font-family="Arial" font-size="8.00">startTime : datetime*</text>
<text text-anchor="start" x="798.5" y="-162.8" font-family="Arial" font-size="8.00">endTime : datetime</text>
<text text-anchor="start" x="798.5" y="-152.8" font-family="Arial" font-size="8.00">frequencyCluster : xref&#45;&gt;frequencyCluster</text>
<text text-anchor="start" x="798.5" y="-142.8" font-family="Arial" font-size="8.00">genotypeCombo : text</text>
<text text-anchor="start" x="798.5" y="-132.8" font-family="Arial" font-size="8.00">frequencyAsProportion : decimal*</text>
<text text-anchor="start" x="798.5" y="-122.8" font-family="Arial" font-size="8.00">numberSamplesWithGenotype : int</text>
</g>
<!-- AlleleFrequency -->
<g id="node5" class="node"><title>AlleleFrequency</title>
<polygon fill="#e5d8bd" stroke="black" points="535.5,-121 535.5,-267 708.5,-267 708.5,-121 535.5,-121"/>
<text text-anchor="middle" x="622" y="-255.8" font-family="Arial" font-size="8.00">AlleleFrequency</text>
<text text-anchor="middle" x="622" y="-245.8" font-family="Arial" font-size="8.00"> extends DataSet</text>
<polyline fill="none" stroke="black" points="535.5,-239 708.5,-239 "/>
<text text-anchor="start" x="543.5" y="-227.8" font-family="Arial" font-size="8.00">id : int*</text>
<text text-anchor="start" x="543.5" y="-217.8" font-family="Arial" font-size="8.00">identifier : string*</text>
<text text-anchor="start" x="543.5" y="-207.8" font-family="Arial" font-size="8.00">name : string*</text>
<text text-anchor="start" x="543.5" y="-197.8" font-family="Arial" font-size="8.00">__Type : enum*</text>
<text text-anchor="start" x="543.5" y="-187.8" font-family="Arial" font-size="8.00">description : text</text>
<text text-anchor="start" x="543.5" y="-177.8" font-family="Arial" font-size="8.00">protocolUsed : xref&#45;&gt;protocol</text>
<text text-anchor="start" x="543.5" y="-167.8" font-family="Arial" font-size="8.00">startTime : datetime*</text>
<text text-anchor="start" x="543.5" y="-157.8" font-family="Arial" font-size="8.00">endTime : datetime</text>
<text text-anchor="start" x="543.5" y="-147.8" font-family="Arial" font-size="8.00">frequencyCluster : xref&#45;&gt;frequencyCluster</text>
<text text-anchor="start" x="543.5" y="-137.8" font-family="Arial" font-size="8.00">alleleCombo : text</text>
<text text-anchor="start" x="543.5" y="-127.8" font-family="Arial" font-size="8.00">frequencyAsProportion : decimal*</text>
</g>
<!-- PhenotypeProperty -->
<g id="node6" class="node"><title>PhenotypeProperty</title>
<polygon fill="#e5d8bd" stroke="black" points="209.5,-729 209.5,-855 328.5,-855 328.5,-729 209.5,-729"/>
<text text-anchor="middle" x="269" y="-843.8" font-family="Arial" font-size="8.00">PhenotypeProperty</text>
<text text-anchor="middle" x="269" y="-833.8" font-family="Arial" font-size="8.00"> implements Identifiable</text>
<text text-anchor="middle" x="269" y="-823.8" font-family="Arial" font-size="8.00"> extends ObservableFeature</text>
<polyline fill="none" stroke="black" points="209.5,-817 328.5,-817 "/>
<text text-anchor="start" x="217.5" y="-805.8" font-family="Arial" font-size="8.00">id : int*</text>
<text text-anchor="start" x="217.5" y="-795.8" font-family="Arial" font-size="8.00">identifier : string*</text>
<text text-anchor="start" x="217.5" y="-785.8" font-family="Arial" font-size="8.00">name : string</text>
<text text-anchor="start" x="217.5" y="-775.8" font-family="Arial" font-size="8.00">__Type : enum*</text>
<text text-anchor="start" x="217.5" y="-765.8" font-family="Arial" font-size="8.00">description : text</text>
<text text-anchor="start" x="217.5" y="-755.8" font-family="Arial" font-size="8.00">unit : xref&#45;&gt;ontologyTerm</text>
<text text-anchor="start" x="217.5" y="-745.8" font-family="Arial" font-size="8.00">dataType : enum*</text>
<text text-anchor="start" x="217.5" y="-735.8" font-family="Arial" font-size="8.00">temporal : bool*</text>
</g>
<!-- PhenotypeMethod -->
<g id="node7" class="node"><title>PhenotypeMethod</title>
<polygon fill="#e5d8bd" stroke="black" points="797.5,-460 797.5,-616 990.5,-616 990.5,-460 797.5,-460"/>
<text text-anchor="middle" x="894" y="-604.8" font-family="Arial" font-size="8.00">PhenotypeMethod</text>
<text text-anchor="middle" x="894" y="-594.8" font-family="Arial" font-size="8.00"> implements Identifiable</text>
<text text-anchor="middle" x="894" y="-584.8" font-family="Arial" font-size="8.00"> extends DataSet</text>
<polyline fill="none" stroke="black" points="797.5,-578 990.5,-578 "/>
<text text-anchor="start" x="805.5" y="-566.8" font-family="Arial" font-size="8.00">id : int*</text>
<text text-anchor="start" x="805.5" y="-556.8" font-family="Arial" font-size="8.00">identifier : string*</text>
<text text-anchor="start" x="805.5" y="-546.8" font-family="Arial" font-size="8.00">name : string</text>
<text text-anchor="start" x="805.5" y="-536.8" font-family="Arial" font-size="8.00">__Type : enum*</text>
<text text-anchor="start" x="805.5" y="-526.8" font-family="Arial" font-size="8.00">description : text</text>
<text text-anchor="start" x="805.5" y="-516.8" font-family="Arial" font-size="8.00">protocolUsed : xref&#45;&gt;protocol</text>
<text text-anchor="start" x="805.5" y="-506.8" font-family="Arial" font-size="8.00">startTime : datetime*</text>
<text text-anchor="start" x="805.5" y="-496.8" font-family="Arial" font-size="8.00">endTime : datetime</text>
<text text-anchor="start" x="805.5" y="-486.8" font-family="Arial" font-size="8.00">studyID : xref&#45;&gt;study*</text>
<text text-anchor="start" x="805.5" y="-476.8" font-family="Arial" font-size="8.00">phenotypePropertyID : xref&#45;&gt;phenotypeProperty*</text>
<text text-anchor="start" x="805.5" y="-466.8" font-family="Arial" font-size="8.00">sample : string</text>
</g>
<!-- PhenotypeValue -->
<g id="node8" class="node"><title>PhenotypeValue</title>
<polygon fill="#e5d8bd" stroke="black" points="-0.5,-445 -0.5,-631 192.5,-631 192.5,-445 -0.5,-445"/>
<text text-anchor="middle" x="96" y="-619.8" font-family="Arial" font-size="8.00">PhenotypeValue</text>
<text text-anchor="middle" x="96" y="-609.8" font-family="Arial" font-size="8.00"> implements Identifiable</text>
<text text-anchor="middle" x="96" y="-599.8" font-family="Arial" font-size="8.00"> extends ObservedValue</text>
<polyline fill="none" stroke="black" points="-0.5,-593 192.5,-593 "/>
<text text-anchor="start" x="7.5" y="-581.8" font-family="Arial" font-size="8.00">id : int*</text>
<text text-anchor="start" x="7.5" y="-571.8" font-family="Arial" font-size="8.00">__Type : enum*</text>
<text text-anchor="start" x="7.5" y="-561.8" font-family="Arial" font-size="8.00">observationSet : xref&#45;&gt;observationSet*</text>
<text text-anchor="start" x="7.5" y="-551.8" font-family="Arial" font-size="8.00">feature : xref&#45;&gt;observableFeature*</text>
<text text-anchor="start" x="7.5" y="-541.8" font-family="Arial" font-size="8.00">characteristic : xref&#45;&gt;characteristic</text>
<text text-anchor="start" x="7.5" y="-531.8" font-family="Arial" font-size="8.00">value : string*</text>
<text text-anchor="start" x="7.5" y="-521.8" font-family="Arial" font-size="8.00">identifier : string*</text>
<text text-anchor="start" x="7.5" y="-511.8" font-family="Arial" font-size="8.00">name : string</text>
<text text-anchor="start" x="7.5" y="-501.8" font-family="Arial" font-size="8.00">phenotypePropertyID : xref&#45;&gt;phenotypeProperty*</text>
<text text-anchor="start" x="7.5" y="-491.8" font-family="Arial" font-size="8.00">valueRank : string*</text>
<text text-anchor="start" x="7.5" y="-481.8" font-family="Arial" font-size="8.00">valueIsMean : string*</text>
<text text-anchor="start" x="7.5" y="-471.8" font-family="Arial" font-size="8.00">sTD : string*</text>
<text text-anchor="start" x="7.5" y="-461.8" font-family="Arial" font-size="8.00">min : string*</text>
<text text-anchor="start" x="7.5" y="-451.8" font-family="Arial" font-size="8.00">max : string*</text>
</g>
<!-- SamplePanel -->
<g id="node9" class="node"><title>SamplePanel</title>
<polygon fill="#e5d8bd" stroke="black" points="1294,-1 1294,-387 1446,-387 1446,-1 1294,-1"/>
<text text-anchor="middle" x="1370" y="-375.8" font-family="Arial" font-size="8.00">SamplePanel</text>
<text text-anchor="middle" x="1370" y="-365.8" font-family="Arial" font-size="8.00"> implements Identifiable</text>
<text text-anchor="middle" x="1370" y="-355.8" font-family="Arial" font-size="8.00"> extends Panel</text>
<polyline fill="none" stroke="black" points="1294,-349 1446,-349 "/>
<text text-anchor="start" x="1302" y="-337.8" font-family="Arial" font-size="8.00">id : int*</text>
<text text-anchor="start" x="1302" y="-327.8" font-family="Arial" font-size="8.00">identifier : string*</text>
<text text-anchor="start" x="1302" y="-317.8" font-family="Arial" font-size="8.00">name : string</text>
<text text-anchor="start" x="1302" y="-307.8" font-family="Arial" font-size="8.00">__Type : enum*</text>
<text text-anchor="start" x="1302" y="-297.8" font-family="Arial" font-size="8.00">description : text</text>
<text text-anchor="start" x="1302" y="-287.8" font-family="Arial" font-size="8.00">panelType : xref&#45;&gt;ontologyTerm</text>
<text text-anchor="start" x="1302" y="-277.8" font-family="Arial" font-size="8.00">numberOfIndividuals : int*</text>
<text text-anchor="start" x="1302" y="-267.8" font-family="Arial" font-size="8.00">species : xref&#45;&gt;species</text>
<text text-anchor="start" x="1302" y="-257.8" font-family="Arial" font-size="8.00">individuals : mref&#45;&gt;individual</text>
<text text-anchor="start" x="1302" y="-247.8" font-family="Arial" font-size="8.00">centralIdentifier : xref&#45;&gt;ontologyTerm</text>
<text text-anchor="start" x="1302" y="-237.8" font-family="Arial" font-size="8.00">label : string</text>
<text text-anchor="start" x="1302" y="-227.8" font-family="Arial" font-size="8.00">accession : string</text>
<text text-anchor="start" x="1302" y="-217.8" font-family="Arial" font-size="8.00">accessionVersion : string</text>
<text text-anchor="start" x="1302" y="-207.8" font-family="Arial" font-size="8.00">composition : text</text>
<text text-anchor="start" x="1302" y="-197.8" font-family="Arial" font-size="8.00">totalNumberOfIndividuals : int</text>
<text text-anchor="start" x="1302" y="-187.8" font-family="Arial" font-size="8.00">numberOfSexMale : int</text>
<text text-anchor="start" x="1302" y="-177.8" font-family="Arial" font-size="8.00">numberOfSexFemale : int</text>
<text text-anchor="start" x="1302" y="-167.8" font-family="Arial" font-size="8.00">numberOfSexUnknown : int</text>
<text text-anchor="start" x="1302" y="-157.8" font-family="Arial" font-size="8.00">numberOfProbands : int</text>
<text text-anchor="start" x="1302" y="-147.8" font-family="Arial" font-size="8.00">numberOfParents : int</text>
<text text-anchor="start" x="1302" y="-137.8" font-family="Arial" font-size="8.00">modeOfRecruitment : string</text>
<text text-anchor="start" x="1302" y="-127.8" font-family="Arial" font-size="8.00">diagnosisAgeRange : string</text>
<text text-anchor="start" x="1302" y="-117.8" font-family="Arial" font-size="8.00">diagnosisPeriod : string</text>
<text text-anchor="start" x="1302" y="-107.8" font-family="Arial" font-size="8.00">samplingAgeRange : string</text>
<text text-anchor="start" x="1302" y="-97.8" font-family="Arial" font-size="8.00">samplingPeriod : string</text>
<text text-anchor="start" x="1302" y="-87.8" font-family="Arial" font-size="8.00">populationInfo : string</text>
<text text-anchor="start" x="1302" y="-77.8" font-family="Arial" font-size="8.00">geographicRegionInfo : string</text>
<text text-anchor="start" x="1302" y="-67.8" font-family="Arial" font-size="8.00">ethnicityInfo : string</text>
<text text-anchor="start" x="1302" y="-57.8" font-family="Arial" font-size="8.00">birthPlaceInfo : string</text>
<text text-anchor="start" x="1302" y="-47.8" font-family="Arial" font-size="8.00">admixtureInfo : string</text>
<text text-anchor="start" x="1302" y="-37.8" font-family="Arial" font-size="8.00">environmentInfo : text</text>
<text text-anchor="start" x="1302" y="-27.8" font-family="Arial" font-size="8.00">sourceOfDNA : string</text>
<text text-anchor="start" x="1302" y="-17.8" font-family="Arial" font-size="8.00">dNAsArePooled : enum*</text>
<text text-anchor="start" x="1302" y="-7.8" font-family="Arial" font-size="8.00">dNAsAreWGA : enum*</text>
</g>
<!-- AssayedPanel -->
<g id="node10" class="node"><title>AssayedPanel</title>
<polygon fill="#e5d8bd" stroke="black" points="1013.5,-96 1013.5,-292 1144.5,-292 1144.5,-96 1013.5,-96"/>
<text text-anchor="middle" x="1079" y="-280.8" font-family="Arial" font-size="8.00">AssayedPanel</text>
<text text-anchor="middle" x="1079" y="-270.8" font-family="Arial" font-size="8.00"> implements Identifiable</text>
<text text-anchor="middle" x="1079" y="-260.8" font-family="Arial" font-size="8.00"> extends Panel</text>
<polyline fill="none" stroke="black" points="1013.5,-254 1144.5,-254 "/>
<text text-anchor="start" x="1021.5" y="-242.8" font-family="Arial" font-size="8.00">id : int*</text>
<text text-anchor="start" x="1021.5" y="-232.8" font-family="Arial" font-size="8.00">identifier : string*</text>
<text text-anchor="start" x="1021.5" y="-222.8" font-family="Arial" font-size="8.00">name : string</text>
<text text-anchor="start" x="1021.5" y="-212.8" font-family="Arial" font-size="8.00">__Type : enum*</text>
<text text-anchor="start" x="1021.5" y="-202.8" font-family="Arial" font-size="8.00">description : text</text>
<text text-anchor="start" x="1021.5" y="-192.8" font-family="Arial" font-size="8.00">panelType : xref&#45;&gt;ontologyTerm</text>
<text text-anchor="start" x="1021.5" y="-182.8" font-family="Arial" font-size="8.00">numberOfIndividuals : int*</text>
<text text-anchor="start" x="1021.5" y="-172.8" font-family="Arial" font-size="8.00">species : xref&#45;&gt;species</text>
<text text-anchor="start" x="1021.5" y="-162.8" font-family="Arial" font-size="8.00">individuals : mref&#45;&gt;individual</text>
<text text-anchor="start" x="1021.5" y="-152.8" font-family="Arial" font-size="8.00">totalNumberOfIndividuals : int</text>
<text text-anchor="start" x="1021.5" y="-142.8" font-family="Arial" font-size="8.00">numberOfSexMale : int</text>
<text text-anchor="start" x="1021.5" y="-132.8" font-family="Arial" font-size="8.00">numberOfSexFemale : int</text>
<text text-anchor="start" x="1021.5" y="-122.8" font-family="Arial" font-size="8.00">numberOfSexUnknown : int</text>
<text text-anchor="start" x="1021.5" y="-112.8" font-family="Arial" font-size="8.00">numberOfProbands : int</text>
<text text-anchor="start" x="1021.5" y="-102.8" font-family="Arial" font-size="8.00">numberOfParents : int</text>
</g>
<!-- GWASExperiment -->
<g id="node11" class="node"><title>GWASExperiment</title>
<polygon fill="#e5d8bd" stroke="black" points="499.5,-689 499.5,-895 654.5,-895 654.5,-689 499.5,-689"/>
<text text-anchor="middle" x="577" y="-883.8" font-family="Arial" font-size="8.00">GWASExperiment</text>
<text text-anchor="middle" x="577" y="-873.8" font-family="Arial" font-size="8.00"> implements Identifiable</text>
<text text-anchor="middle" x="577" y="-863.8" font-family="Arial" font-size="8.00"> extends Experiment</text>
<polyline fill="none" stroke="black" points="499.5,-857 654.5,-857 "/>
<text text-anchor="start" x="507.5" y="-845.8" font-family="Arial" font-size="8.00">id : int*</text>
<text text-anchor="start" x="507.5" y="-835.8" font-family="Arial" font-size="8.00">identifier : string*</text>
<text text-anchor="start" x="507.5" y="-825.8" font-family="Arial" font-size="8.00">name : string*</text>
<text text-anchor="start" x="507.5" y="-815.8" font-family="Arial" font-size="8.00">__Type : enum*</text>
<text text-anchor="start" x="507.5" y="-805.8" font-family="Arial" font-size="8.00">study : xref&#45;&gt;study*</text>
<text text-anchor="start" x="507.5" y="-795.8" font-family="Arial" font-size="8.00">design : string</text>
<text text-anchor="start" x="507.5" y="-785.8" font-family="Arial" font-size="8.00">experimentType : xref&#45;&gt;ontologyTerm*</text>
<text text-anchor="start" x="507.5" y="-775.8" font-family="Arial" font-size="8.00">totalMarkersTested : int</text>
<text text-anchor="start" x="507.5" y="-765.8" font-family="Arial" font-size="8.00">totalMarkersImported : int</text>
<text text-anchor="start" x="507.5" y="-755.8" font-family="Arial" font-size="8.00">objective : text</text>
<text text-anchor="start" x="507.5" y="-745.8" font-family="Arial" font-size="8.00">outcome : text</text>
<text text-anchor="start" x="507.5" y="-735.8" font-family="Arial" font-size="8.00">comments : text</text>
<text text-anchor="start" x="507.5" y="-725.8" font-family="Arial" font-size="8.00">individualDataStatement : text</text>
<text text-anchor="start" x="507.5" y="-715.8" font-family="Arial" font-size="8.00">timeCreated : datetime*</text>
<text text-anchor="start" x="507.5" y="-705.8" font-family="Arial" font-size="8.00">assayedPanels : mref&#45;&gt;panel*</text>
<text text-anchor="start" x="507.5" y="-695.8" font-family="Arial" font-size="8.00">dataSets : mref&#45;&gt;dataSet*</text>
</g>
<!-- UsedMarkerSet -->
<g id="node12" class="node"><title>UsedMarkerSet</title>
<polygon fill="#e5d8bd" stroke="black" points="346,-724 346,-860 482,-860 482,-724 346,-724"/>
<text text-anchor="middle" x="414" y="-848.8" font-family="Arial" font-size="8.00">UsedMarkerSet</text>
<text text-anchor="middle" x="414" y="-838.8" font-family="Arial" font-size="8.00"> extends ObservableFeature</text>
<polyline fill="none" stroke="black" points="346,-832 482,-832 "/>
<text text-anchor="start" x="354" y="-820.8" font-family="Arial" font-size="8.00">id : int*</text>
<text text-anchor="start" x="354" y="-810.8" font-family="Arial" font-size="8.00">identifier : string*</text>
<text text-anchor="start" x="354" y="-800.8" font-family="Arial" font-size="8.00">name : string*</text>
<text text-anchor="start" x="354" y="-790.8" font-family="Arial" font-size="8.00">__Type : enum*</text>
<text text-anchor="start" x="354" y="-780.8" font-family="Arial" font-size="8.00">description : text</text>
<text text-anchor="start" x="354" y="-770.8" font-family="Arial" font-size="8.00">unit : xref&#45;&gt;ontologyTerm</text>
<text text-anchor="start" x="354" y="-760.8" font-family="Arial" font-size="8.00">dataType : enum*</text>
<text text-anchor="start" x="354" y="-750.8" font-family="Arial" font-size="8.00">temporal : bool*</text>
<text text-anchor="start" x="354" y="-740.8" font-family="Arial" font-size="8.00">experimentID : xref&#45;&gt;experiment</text>
<text text-anchor="start" x="354" y="-730.8" font-family="Arial" font-size="8.00">markerIdentifier : string</text>
</g>
<!-- Significance -->
<g id="node13" class="node"><title>Significance</title>
<polygon fill="#e5d8bd" stroke="black" points="394,-455 394,-621 562,-621 562,-455 394,-455"/>
<text text-anchor="middle" x="478" y="-609.8" font-family="Arial" font-size="8.00">Significance</text>
<text text-anchor="middle" x="478" y="-599.8" font-family="Arial" font-size="8.00"> implements Autoid</text>
<text text-anchor="middle" x="478" y="-589.8" font-family="Arial" font-size="8.00"> extends DataSet</text>
<polyline fill="none" stroke="black" points="394,-583 562,-583 "/>
<text text-anchor="start" x="402" y="-571.8" font-family="Arial" font-size="8.00">id : int*</text>
<text text-anchor="start" x="402" y="-561.8" font-family="Arial" font-size="8.00">identifier : string*</text>
<text text-anchor="start" x="402" y="-551.8" font-family="Arial" font-size="8.00">name : string*</text>
<text text-anchor="start" x="402" y="-541.8" font-family="Arial" font-size="8.00">__Type : enum*</text>
<text text-anchor="start" x="402" y="-531.8" font-family="Arial" font-size="8.00">description : text</text>
<text text-anchor="start" x="402" y="-521.8" font-family="Arial" font-size="8.00">protocolUsed : xref&#45;&gt;protocol</text>
<text text-anchor="start" x="402" y="-511.8" font-family="Arial" font-size="8.00">startTime : datetime*</text>
<text text-anchor="start" x="402" y="-501.8" font-family="Arial" font-size="8.00">endTime : datetime</text>
<text text-anchor="start" x="402" y="-491.8" font-family="Arial" font-size="8.00">usedmarkersetID : xref&#45;&gt;usedMarkerSet*</text>
<text text-anchor="start" x="402" y="-481.8" font-family="Arial" font-size="8.00">negLogPValue : decimal</text>
<text text-anchor="start" x="402" y="-471.8" font-family="Arial" font-size="8.00">unadjustedPValue : text</text>
<text text-anchor="start" x="402" y="-461.8" font-family="Arial" font-size="8.00">adjustedPValue : decimal</text>
</g>
<!-- EffectSize -->
<g id="node14" class="node"><title>EffectSize</title>
<polygon fill="#e5d8bd" stroke="black" points="209.5,-460 209.5,-616 376.5,-616 376.5,-460 209.5,-460"/>
<text text-anchor="middle" x="293" y="-604.8" font-family="Arial" font-size="8.00">EffectSize</text>
<text text-anchor="middle" x="293" y="-594.8" font-family="Arial" font-size="8.00"> extends DataSet</text>
<polyline fill="none" stroke="black" points="209.5,-588 376.5,-588 "/>
<text text-anchor="start" x="217.5" y="-576.8" font-family="Arial" font-size="8.00">id : int*</text>
<text text-anchor="start" x="217.5" y="-566.8" font-family="Arial" font-size="8.00">identifier : string*</text>
<text text-anchor="start" x="217.5" y="-556.8" font-family="Arial" font-size="8.00">name : string*</text>
<text text-anchor="start" x="217.5" y="-546.8" font-family="Arial" font-size="8.00">__Type : enum*</text>
<text text-anchor="start" x="217.5" y="-536.8" font-family="Arial" font-size="8.00">description : text</text>
<text text-anchor="start" x="217.5" y="-526.8" font-family="Arial" font-size="8.00">protocolUsed : xref&#45;&gt;protocol</text>
<text text-anchor="start" x="217.5" y="-516.8" font-family="Arial" font-size="8.00">startTime : datetime*</text>
<text text-anchor="start" x="217.5" y="-506.8" font-family="Arial" font-size="8.00">endTime : datetime</text>
<text text-anchor="start" x="217.5" y="-496.8" font-family="Arial" font-size="8.00">usedMarkerSetID : xref&#45;&gt;usedMarkerSet</text>
<text text-anchor="start" x="217.5" y="-486.8" font-family="Arial" font-size="8.00">lower95Bound : decimal*</text>
<text text-anchor="start" x="217.5" y="-476.8" font-family="Arial" font-size="8.00">upper95Bound : decimal*</text>
<text text-anchor="start" x="217.5" y="-466.8" font-family="Arial" font-size="8.00">stdError : decimal*</text>
</g>
<!-- SelectionCriteria -->
<g id="node15" class="node"><title>SelectionCriteria</title>
<polygon fill="#e5d8bd" stroke="black" points="1161.5,-151 1161.5,-237 1276.5,-237 1276.5,-151 1161.5,-151"/>
<text text-anchor="middle" x="1219" y="-225.8" font-family="Arial" font-size="8.00">SelectionCriteria</text>
<text text-anchor="middle" x="1219" y="-215.8" font-family="Arial" font-size="8.00"> implements Autoid</text>
<polyline fill="none" stroke="black" points="1161.5,-209 1276.5,-209 "/>
<text text-anchor="start" x="1169.5" y="-197.8" font-family="Arial" font-size="8.00">id : int*</text>
<text text-anchor="start" x="1169.5" y="-187.8" font-family="Arial" font-size="8.00">sourcePanel : xref&#45;&gt;panel*</text>
<text text-anchor="start" x="1169.5" y="-177.8" font-family="Arial" font-size="8.00">targetPanel : xref&#45;&gt;panel*</text>
<text text-anchor="start" x="1169.5" y="-167.8" font-family="Arial" font-size="8.00">numberOfIndividuals : int*</text>
<text text-anchor="start" x="1169.5" y="-157.8" font-family="Arial" font-size="8.00">details : text*</text>
</g>
<!-- DataSet -->
<g id="node17" class="node"><title>DataSet</title>
<polygon fill="white" stroke="#808080" points="672,-774 672,-810 726,-810 726,-774 672,-774"/>
<text text-anchor="middle" x="699" y="-789.8" font-family="Arial" font-size="8.00">DataSet</text>
</g>
<!-- ObservableFeature -->
<g id="node21" class="node"><title>ObservableFeature</title>
<polygon fill="white" stroke="#808080" points="312,-933 312,-969 398,-969 398,-933 312,-933"/>
<text text-anchor="middle" x="355" y="-948.8" font-family="Arial" font-size="8.00">ObservableFeature</text>
</g>
<!-- ObservedValue -->
<g id="node24" class="node"><title>ObservedValue</title>
<polygon fill="white" stroke="#808080" points="60.5,-774 60.5,-810 131.5,-810 131.5,-774 60.5,-774"/>
<text text-anchor="middle" x="96" y="-789.8" font-family="Arial" font-size="8.00">ObservedValue</text>
</g>
<!-- Panel -->
<g id="node26" class="node"><title>Panel</title>
<polygon fill="white" stroke="#808080" points="1192,-520 1192,-556 1246,-556 1246,-520 1192,-520"/>
<text text-anchor="middle" x="1219" y="-535.8" font-family="Arial" font-size="8.00">Panel</text>
</g>
<!-- Experiment -->
<g id="node29" class="node"><title>Experiment</title>
<polygon fill="white" stroke="#808080" points="442.5,-933 442.5,-969 501.5,-969 501.5,-933 442.5,-933"/>
<text text-anchor="middle" x="472" y="-948.8" font-family="Arial" font-size="8.00">Experiment</text>
</g>
<!-- Study -->
<g id="node34" class="node"><title>Study</title>
<polygon fill="white" stroke="#808080" points="939,-774 939,-810 993,-810 993,-774 939,-774"/>
<text text-anchor="middle" x="966" y="-789.8" font-family="Arial" font-size="8.00">Study</text>
</g>
<!-- Citation -->
<g id="node36" class="node"><title>Citation</title>
<polygon fill="white" stroke="#808080" points="1083,-774 1083,-810 1137,-810 1137,-774 1083,-774"/>
<text text-anchor="middle" x="1110" y="-789.8" font-family="Arial" font-size="8.00">Citation</text>
</g>
<!-- OntologyTerm -->
<g id="node45" class="node"><title>OntologyTerm</title>
<polygon fill="white" stroke="#808080" points="1337,-520 1337,-556 1403,-556 1403,-520 1337,-520"/>
<text text-anchor="middle" x="1370" y="-535.8" font-family="Arial" font-size="8.00">OntologyTerm</text>
</g>
</g>
</svg>
