<?xml version="1.0" encoding="UTF-8" standalone="no"?>
<!DOCTYPE svg PUBLIC "-//W3C//DTD SVG 1.1//EN"
 "http://www.w3.org/Graphics/SVG/1.1/DTD/svg11.dtd">
<!-- Generated by graphviz version 2.26.3 (20100126.1600)
 -->
<!-- Title: G Pages: 1 -->
<svg width="868pt" height="1056pt"
 viewBox="0.00 0.00 868.32 1056.00" xmlns="http://www.w3.org/2000/svg" xmlns:xlink="http://www.w3.org/1999/xlink">
<g id="graph1" class="graph" transform="scale(1 1) rotate(0) translate(4 1052)">
<title>G</title>
<polygon fill="lightyellow" stroke="lightyellow" points="-4,5 -4,-1052 865.318,-1052 865.318,5 -4,5"/>
<!-- Genome&#45;&gt;Characteristic -->
<g id="edge2" class="edge"><title>Genome&#45;&gt;Characteristic</title>
<path fill="none" stroke="black" d="M263.373,-965.173C267.833,-968.37 272.396,-971.354 277,-974 317.327,-997.172 368.678,-1011.96 404.732,-1020.3"/>
<polygon fill="none" stroke="black" points="404.414,-1023.81 414.937,-1022.58 405.942,-1016.98 404.414,-1023.81"/>
</g>
<!-- Genome&#45;&gt;Species -->
<g id="edge16" class="edge"><title>Genome&#45;&gt;Species</title>
<path fill="none" stroke="black" d="M206,-973.333C206,-984.517 206,-995.52 206,-1004.75"/>
<polygon fill="black" stroke="black" points="206,-1010.84 203.3,-1004.84 206,-1007.84 206,-1004.84 206,-1004.84 206,-1004.84 206,-1007.84 208.7,-1004.84 206,-1010.84 206,-1010.84"/>
<text text-anchor="middle" x="210.226" y="-999.578" font-family="Bitstream Vera Sans" font-size="8.00">0..1</text>
<text text-anchor="middle" x="201.774" y="-980.196" font-family="Bitstream Vera Sans" font-size="8.00">*</text>
</g>
<!-- Chromosome&#45;&gt;Genome -->
<g id="edge18" class="edge"><title>Chromosome&#45;&gt;Genome</title>
<path fill="none" stroke="black" d="M228.05,-809.035C225.758,-819.531 223.405,-830.305 221.129,-840.724"/>
<polygon fill="black" stroke="black" points="219.799,-846.813 218.442,-840.375 220.439,-843.882 221.08,-840.952 221.08,-840.952 221.08,-840.952 220.439,-843.882 223.717,-841.528 219.799,-846.813 219.799,-846.813"/>
<text text-anchor="middle" x="225.862" y="-836.661" font-family="Bitstream Vera Sans" font-size="8.00">1</text>
<text text-anchor="middle" x="221.987" y="-814.788" font-family="Bitstream Vera Sans" font-size="8.00">*</text>
</g>
<!-- Chromosome&#45;&gt;Characteristic -->
<g id="edge4" class="edge"><title>Chromosome&#45;&gt;Characteristic</title>
<path fill="none" stroke="black" d="M262.466,-809.31C279.435,-874.504 303.625,-961.432 315,-974 338.322,-999.768 375.517,-1013.74 404.809,-1021.15"/>
<polygon fill="none" stroke="black" points="404.269,-1024.62 414.805,-1023.5 405.873,-1017.8 404.269,-1024.62"/>
</g>
<!-- Gene&#45;&gt;Chromosome -->
<g id="edge20" class="edge"><title>Gene&#45;&gt;Chromosome</title>
<path fill="none" stroke="black" d="M364.731,-624.692C344.981,-642.901 324.298,-661.97 305.743,-679.076"/>
<polygon fill="black" stroke="black" points="301.073,-683.381 303.654,-677.329 303.279,-681.348 305.484,-679.314 305.484,-679.314 305.484,-679.314 303.279,-681.348 307.315,-681.299 301.073,-683.381 301.073,-683.381"/>
<text text-anchor="middle" x="310.601" y="-678.145" font-family="Bitstream Vera Sans" font-size="8.00">0..1</text>
<text text-anchor="middle" x="355.203" y="-625.528" font-family="Bitstream Vera Sans" font-size="8.00">*</text>
</g>
<!-- Gene&#45;&gt;Characteristic -->
<g id="edge6" class="edge"><title>Gene&#45;&gt;Characteristic</title>
<path fill="none" stroke="black" d="M449,-625.246C449,-734.793 449,-928.559 449,-1000.81"/>
<polygon fill="none" stroke="black" points="445.5,-1000.94 449,-1010.94 452.5,-1000.94 445.5,-1000.94"/>
</g>
<!-- Protein&#45;&gt;Gene -->
<g id="edge22" class="edge"><title>Protein&#45;&gt;Gene</title>
<path fill="none" stroke="black" d="M656.11,-421.037C651.412,-424.838 646.689,-428.519 642,-432 609.599,-456.057 571.863,-479.453 538.396,-498.793"/>
<polygon fill="black" stroke="black" points="533.063,-501.861 536.917,-496.529 535.664,-500.365 538.264,-498.869 538.264,-498.869 538.264,-498.869 535.664,-500.365 539.61,-501.209 533.063,-501.861 533.063,-501.861"/>
<text text-anchor="middle" x="543.027" y="-498.804" font-family="Bitstream Vera Sans" font-size="8.00">0..1</text>
<text text-anchor="middle" x="646.401" y="-421.234" font-family="Bitstream Vera Sans" font-size="8.00">*</text>
</g>
<!-- Protein&#45;&gt;Characteristic -->
<g id="edge8" class="edge"><title>Protein&#45;&gt;Characteristic</title>
<path fill="none" stroke="black" d="M720.334,-421.435C694.88,-544.25 631.529,-795.413 511,-974 503.442,-985.199 493.087,-995.582 483.004,-1004.24"/>
<polygon fill="none" stroke="black" points="480.533,-1001.74 475.034,-1010.8 484.98,-1007.15 480.533,-1001.74"/>
</g>
<!-- ProteinDomain&#45;&gt;Chromosome -->
<g id="edge26" class="edge"><title>ProteinDomain&#45;&gt;Chromosome</title>
<path fill="none" stroke="black" d="M387.359,-426.191C376.03,-439.532 365.135,-453.714 356,-468 318.06,-527.335 288.183,-601.693 268.862,-657.023"/>
<polygon fill="black" stroke="black" points="266.793,-662.994 266.207,-656.44 267.775,-660.159 268.758,-657.325 268.758,-657.325 268.758,-657.325 267.775,-660.159 271.309,-658.209 266.793,-662.994 266.793,-662.994"/>
<text text-anchor="middle" x="273.754" y="-653.615" font-family="Bitstream Vera Sans" font-size="8.00">0..1</text>
<text text-anchor="middle" x="378.293" y="-428.21" font-family="Bitstream Vera Sans" font-size="8.00">*</text>
</g>
<!-- ProteinDomain&#45;&gt;Gene -->
<g id="edge24" class="edge"><title>ProteinDomain&#45;&gt;Gene</title>
<path fill="none" stroke="black" d="M459.33,-426.079C458.308,-438.041 457.249,-450.436 456.216,-462.528"/>
<polygon fill="black" stroke="black" points="455.679,-468.82 453.499,-462.612 455.934,-465.831 456.19,-462.841 456.19,-462.841 456.19,-462.841 455.934,-465.831 458.88,-463.071 455.679,-468.82 455.679,-468.82"/>
<text text-anchor="middle" x="460.661" y="-457.949" font-family="Bitstream Vera Sans" font-size="8.00">0..1</text>
<text text-anchor="middle" x="454.348" y="-432.549" font-family="Bitstream Vera Sans" font-size="8.00">*</text>
</g>
<!-- ProteinDomain&#45;&gt;Characteristic -->
<g id="edge10" class="edge"><title>ProteinDomain&#45;&gt;Characteristic</title>
<path fill="none" stroke="black" d="M524.185,-426.325C531.514,-439.648 537.879,-453.79 542,-468 600.004,-667.995 499.292,-919.266 462.029,-1001.55"/>
<polygon fill="none" stroke="black" points="458.805,-1000.18 457.814,-1010.73 465.167,-1003.1 458.805,-1000.18"/>
</g>
<!-- Exon&#45;&gt;Chromosome -->
<g id="edge30" class="edge"><title>Exon&#45;&gt;Chromosome</title>
<path fill="none" stroke="black" d="M244,-431.236C244,-497.891 244,-590.78 244,-656.444"/>
<polygon fill="black" stroke="black" points="244,-662.712 241.3,-656.712 244,-659.712 244,-656.712 244,-656.712 244,-656.712 244,-659.712 246.7,-656.712 244,-662.712 244,-662.712"/>
<text text-anchor="middle" x="248.226" y="-651.449" font-family="Bitstream Vera Sans" font-size="8.00">0..1</text>
<text text-anchor="middle" x="239.774" y="-438.099" font-family="Bitstream Vera Sans" font-size="8.00">*</text>
</g>
<!-- Exon&#45;&gt;Gene -->
<g id="edge28" class="edge"><title>Exon&#45;&gt;Gene</title>
<path fill="none" stroke="black" d="M327.677,-429.228C339.707,-440.905 352.094,-452.931 364.147,-464.63"/>
<polygon fill="black" stroke="black" points="368.57,-468.924 362.385,-466.683 366.418,-466.835 364.265,-464.745 364.265,-464.745 364.265,-464.745 366.418,-466.835 366.146,-462.808 368.57,-468.924 368.57,-468.924"/>
<text text-anchor="middle" x="365.011" y="-457.379" font-family="Bitstream Vera Sans" font-size="8.00">0..1</text>
<text text-anchor="middle" x="331.236" y="-436.373" font-family="Bitstream Vera Sans" font-size="8.00">*</text>
</g>
<!-- Exon&#45;&gt;Characteristic -->
<g id="edge12" class="edge"><title>Exon&#45;&gt;Characteristic</title>
<path fill="none" stroke="black" d="M269.034,-431.163C315.203,-584.534 411.685,-905.043 440.622,-1001.17"/>
<polygon fill="none" stroke="black" points="437.276,-1002.2 443.51,-1010.76 443.979,-1000.18 437.276,-1002.2"/>
</g>
<!-- Variant&#45;&gt;Chromosome -->
<g id="edge32" class="edge"><title>Variant&#45;&gt;Chromosome</title>
<path fill="none" stroke="black" d="M495.198,-223.735C492.496,-225.246 489.762,-226.671 487,-228 419.53,-260.461 202.035,-208.3 152,-264 54.1636,-372.913 133.535,-554.094 193.244,-657.427"/>
<polygon fill="black" stroke="black" points="196.429,-662.899 191.077,-659.072 194.92,-660.306 193.411,-657.713 193.411,-657.713 193.411,-657.713 194.92,-660.306 195.744,-656.355 196.429,-662.899 196.429,-662.899"/>
<text text-anchor="middle" x="195.522" y="-650.74" font-family="Bitstream Vera Sans" font-size="8.00">0..1</text>
<text text-anchor="middle" x="485.223" y="-222.24" font-family="Bitstream Vera Sans" font-size="8.00">*</text>
</g>
<!-- Variant&#45;&gt;Gene -->
<g id="edge34" class="edge"><title>Variant&#45;&gt;Gene</title>
<path fill="none" stroke="black" d="M495.495,-222.515C492.686,-224.422 489.852,-226.255 487,-228 442.04,-255.511 405.104,-221.446 374,-264 329.939,-324.28 352.724,-360.429 374,-432 377.181,-442.701 381.709,-453.336 386.983,-463.57"/>
<polygon fill="black" stroke="black" points="389.807,-468.884 384.607,-464.852 388.399,-466.235 386.991,-463.585 386.991,-463.585 386.991,-463.585 388.399,-466.235 389.376,-462.318 389.807,-468.884 389.807,-468.884"/>
<text text-anchor="middle" x="389.286" y="-456.697" font-family="Bitstream Vera Sans" font-size="8.00">0..1</text>
<text text-anchor="middle" x="485.62" y="-221.886" font-family="Bitstream Vera Sans" font-size="8.00">*</text>
</g>
<!-- Variant&#45;&gt;Protein -->
<g id="edge36" class="edge"><title>Variant&#45;&gt;Protein</title>
<path fill="none" stroke="black" d="M664.841,-227.23C673.039,-241.545 681.28,-255.936 689.072,-269.544"/>
<polygon fill="black" stroke="black" points="692.15,-274.919 686.826,-271.054 690.659,-272.316 689.169,-269.712 689.169,-269.712 689.169,-269.712 690.659,-272.316 691.512,-268.371 692.15,-274.919 692.15,-274.919"/>
<text text-anchor="middle" x="691.314" y="-262.754" font-family="Bitstream Vera Sans" font-size="8.00">0..1</text>
<text text-anchor="middle" x="665.678" y="-234.995" font-family="Bitstream Vera Sans" font-size="8.00">*</text>
</g>
<!-- Variant&#45;&gt;Characteristic -->
<g id="edge14" class="edge"><title>Variant&#45;&gt;Characteristic</title>
<path fill="none" stroke="black" d="M704.532,-157.286C749.813,-181.68 798.635,-216.858 826,-264 889.286,-373.024 845,-420.939 845,-547 845,-547 845,-547 845,-736 845,-909.603 596.019,-992.116 492.906,-1018.84"/>
<polygon fill="none" stroke="black" points="491.938,-1015.48 483.105,-1021.33 493.659,-1022.26 491.938,-1015.48"/>
</g>
<!-- Variant&#45;&gt;OntologyTerm -->
<g id="edge38" class="edge"><title>Variant&#45;&gt;OntologyTerm</title>
<path fill="none" stroke="black" d="M600,-227.23C600,-263.485 600,-300.224 600,-323.501"/>
<polygon fill="black" stroke="black" points="600,-329.698 597.3,-323.698 600,-326.698 600,-323.698 600,-323.698 600,-323.698 600,-326.698 602.7,-323.698 600,-329.698 600,-329.698"/>
<text text-anchor="middle" x="604.226" y="-318.435" font-family="Bitstream Vera Sans" font-size="8.00">0..1</text>
<text text-anchor="middle" x="595.774" y="-234.093" font-family="Bitstream Vera Sans" font-size="8.00">*</text>
</g>
<!-- BioSequence -->
<g id="node1" class="node"><title>BioSequence</title>
<polygon fill="#fed9a6" stroke="dimgrey" points="-0.5,-91 -0.5,-137 104.5,-137 104.5,-91 -0.5,-91"/>
<text text-anchor="middle" x="52" y="-125.8" font-family="Arial-Italic" font-size="8.00" fill="dimgrey">Interface:BioSequence</text>
<polyline fill="none" stroke="dimgrey" points="-0.5,-119 104.5,-119 "/>
<text text-anchor="start" x="7.5" y="-107.8" font-family="Arial-Italic" font-size="8.00" fill="dimgrey">residues : text</text>
<text text-anchor="start" x="7.5" y="-97.8" font-family="Arial-Italic" font-size="8.00" fill="dimgrey">seqlen : int</text>
</g>
<!-- GdnaPosition -->
<g id="node2" class="node"><title>GdnaPosition</title>
<polygon fill="#fed9a6" stroke="dimgrey" points="122,-86 122,-142 242,-142 242,-86 122,-86"/>
<text text-anchor="middle" x="182" y="-130.8" font-family="Arial-Italic" font-size="8.00" fill="dimgrey">Interface:GdnaPosition</text>
<polyline fill="none" stroke="dimgrey" points="122,-124 242,-124 "/>
<text text-anchor="start" x="130" y="-112.8" font-family="Arial-Italic" font-size="8.00" fill="dimgrey">gdna : xref&#45;&gt;chromosome</text>
<text text-anchor="start" x="130" y="-102.8" font-family="Arial-Italic" font-size="8.00" fill="dimgrey">gdna_start : int</text>
<text text-anchor="start" x="130" y="-92.8" font-family="Arial-Italic" font-size="8.00" fill="dimgrey">gdna_end : int</text>
</g>
<!-- CdnaPosition -->
<g id="node3" class="node"><title>CdnaPosition</title>
<polygon fill="#fed9a6" stroke="dimgrey" points="260,-86 260,-142 366,-142 366,-86 260,-86"/>
<text text-anchor="middle" x="313" y="-130.8" font-family="Arial-Italic" font-size="8.00" fill="dimgrey">Interface:CdnaPosition</text>
<polyline fill="none" stroke="dimgrey" points="260,-124 366,-124 "/>
<text text-anchor="start" x="268" y="-112.8" font-family="Arial-Italic" font-size="8.00" fill="dimgrey">cdna : xref&#45;&gt;gene</text>
<text text-anchor="start" x="268" y="-102.8" font-family="Arial-Italic" font-size="8.00" fill="dimgrey">cdna_start : int</text>
<text text-anchor="start" x="268" y="-92.8" font-family="Arial-Italic" font-size="8.00" fill="dimgrey">cdna_end : int</text>
</g>
<!-- AaPosition -->
<g id="node4" class="node"><title>AaPosition</title>
<polygon fill="#fed9a6" stroke="dimgrey" points="383.5,-86 383.5,-142 478.5,-142 478.5,-86 383.5,-86"/>
<text text-anchor="middle" x="431" y="-130.8" font-family="Arial-Italic" font-size="8.00" fill="dimgrey">Interface:AaPosition</text>
<polyline fill="none" stroke="dimgrey" points="383.5,-124 478.5,-124 "/>
<text text-anchor="start" x="391.5" y="-112.8" font-family="Arial-Italic" font-size="8.00" fill="dimgrey">aa : xref&#45;&gt;protein</text>
<text text-anchor="start" x="391.5" y="-102.8" font-family="Arial-Italic" font-size="8.00" fill="dimgrey">aa_start : int</text>
<text text-anchor="start" x="391.5" y="-92.8" font-family="Arial-Italic" font-size="8.00" fill="dimgrey">aa_end : int</text>
</g>
<!-- Genome -->
<g id="node5" class="node"><title>Genome</title>
<polygon fill="#fed9a6" stroke="black" points="149,-847 149,-973 263,-973 263,-847 149,-847"/>
<text text-anchor="middle" x="206" y="-961.8" font-family="Arial" font-size="8.00">Genome</text>
<text text-anchor="middle" x="206" y="-951.8" font-family="Arial" font-size="8.00"> implements BioSequence</text>
<text text-anchor="middle" x="206" y="-941.8" font-family="Arial" font-size="8.00"> extends Characteristic</text>
<polyline fill="none" stroke="black" points="149,-935 263,-935 "/>
<text text-anchor="start" x="157" y="-923.8" font-family="Arial" font-size="8.00">id : int*</text>
<text text-anchor="start" x="157" y="-913.8" font-family="Arial" font-size="8.00">identifier : string*</text>
<text text-anchor="start" x="157" y="-903.8" font-family="Arial" font-size="8.00">name : string*</text>
<text text-anchor="start" x="157" y="-893.8" font-family="Arial" font-size="8.00">__Type : enum*</text>
<text text-anchor="start" x="157" y="-883.8" font-family="Arial" font-size="8.00">description : text</text>
<text text-anchor="start" x="157" y="-873.8" font-family="Arial" font-size="8.00">residues : text</text>
<text text-anchor="start" x="157" y="-863.8" font-family="Arial" font-size="8.00">seqlen : int</text>
<text text-anchor="start" x="157" y="-853.8" font-family="Arial" font-size="8.00">species : xref&#45;&gt;species</text>
</g>
<!-- Chromosome -->
<g id="node6" class="node"><title>Chromosome</title>
<polygon fill="#fed9a6" stroke="black" points="187,-663 187,-809 301,-809 301,-663 187,-663"/>
<text text-anchor="middle" x="244" y="-797.8" font-family="Arial" font-size="8.00">Chromosome</text>
<text text-anchor="middle" x="244" y="-787.8" font-family="Arial" font-size="8.00"> implements BioSequence</text>
<text text-anchor="middle" x="244" y="-777.8" font-family="Arial" font-size="8.00"> extends Characteristic</text>
<polyline fill="none" stroke="black" points="187,-771 301,-771 "/>
<text text-anchor="start" x="195" y="-759.8" font-family="Arial" font-size="8.00">id : int*</text>
<text text-anchor="start" x="195" y="-749.8" font-family="Arial" font-size="8.00">identifier : string*</text>
<text text-anchor="start" x="195" y="-739.8" font-family="Arial" font-size="8.00">name : string*</text>
<text text-anchor="start" x="195" y="-729.8" font-family="Arial" font-size="8.00">__Type : enum*</text>
<text text-anchor="start" x="195" y="-719.8" font-family="Arial" font-size="8.00">description : text</text>
<text text-anchor="start" x="195" y="-709.8" font-family="Arial" font-size="8.00">residues : text</text>
<text text-anchor="start" x="195" y="-699.8" font-family="Arial" font-size="8.00">seqlen : int</text>
<text text-anchor="start" x="195" y="-689.8" font-family="Arial" font-size="8.00">genome : xref&#45;&gt;genome*</text>
<text text-anchor="start" x="195" y="-679.8" font-family="Arial" font-size="8.00">orderNr : int*</text>
<text text-anchor="start" x="195" y="-669.8" font-family="Arial" font-size="8.00">isAutosomal : bool*</text>
</g>
<!-- Gene -->
<g id="node7" class="node"><title>Gene</title>
<polygon fill="#fed9a6" stroke="black" points="365,-469 365,-625 533,-625 533,-469 365,-469"/>
<text text-anchor="middle" x="449" y="-613.8" font-family="Arial" font-size="8.00">Gene</text>
<text text-anchor="middle" x="449" y="-603.8" font-family="Arial" font-size="8.00"> implements GdnaPosition, BioSequence</text>
<text text-anchor="middle" x="449" y="-593.8" font-family="Arial" font-size="8.00"> extends Characteristic</text>
<polyline fill="none" stroke="black" points="365,-587 533,-587 "/>
<text text-anchor="start" x="373" y="-575.8" font-family="Arial" font-size="8.00">id : int*</text>
<text text-anchor="start" x="373" y="-565.8" font-family="Arial" font-size="8.00">identifier : string*</text>
<text text-anchor="start" x="373" y="-555.8" font-family="Arial" font-size="8.00">name : string*</text>
<text text-anchor="start" x="373" y="-545.8" font-family="Arial" font-size="8.00">__Type : enum*</text>
<text text-anchor="start" x="373" y="-535.8" font-family="Arial" font-size="8.00">description : text</text>
<text text-anchor="start" x="373" y="-525.8" font-family="Arial" font-size="8.00">gdna : xref&#45;&gt;chromosome</text>
<text text-anchor="start" x="373" y="-515.8" font-family="Arial" font-size="8.00">gdna_start : int</text>
<text text-anchor="start" x="373" y="-505.8" font-family="Arial" font-size="8.00">gdna_end : int</text>
<text text-anchor="start" x="373" y="-495.8" font-family="Arial" font-size="8.00">residues : text</text>
<text text-anchor="start" x="373" y="-485.8" font-family="Arial" font-size="8.00">seqlen : int</text>
<text text-anchor="start" x="373" y="-475.8" font-family="Arial" font-size="8.00">strand : enum*</text>
</g>
<!-- Protein -->
<g id="node8" class="node"><title>Protein</title>
<polygon fill="#fed9a6" stroke="black" points="650.5,-275 650.5,-421 817.5,-421 817.5,-275 650.5,-275"/>
<text text-anchor="middle" x="734" y="-409.8" font-family="Arial" font-size="8.00">Protein</text>
<text text-anchor="middle" x="734" y="-399.8" font-family="Arial" font-size="8.00"> implements CdnaPosition, BioSequence</text>
<text text-anchor="middle" x="734" y="-389.8" font-family="Arial" font-size="8.00"> extends Characteristic</text>
<polyline fill="none" stroke="black" points="650.5,-383 817.5,-383 "/>
<text text-anchor="start" x="658.5" y="-371.8" font-family="Arial" font-size="8.00">id : int*</text>
<text text-anchor="start" x="658.5" y="-361.8" font-family="Arial" font-size="8.00">identifier : string*</text>
<text text-anchor="start" x="658.5" y="-351.8" font-family="Arial" font-size="8.00">name : string*</text>
<text text-anchor="start" x="658.5" y="-341.8" font-family="Arial" font-size="8.00">__Type : enum*</text>
<text text-anchor="start" x="658.5" y="-331.8" font-family="Arial" font-size="8.00">description : text</text>
<text text-anchor="start" x="658.5" y="-321.8" font-family="Arial" font-size="8.00">cdna : xref&#45;&gt;gene</text>
<text text-anchor="start" x="658.5" y="-311.8" font-family="Arial" font-size="8.00">cdna_start : int</text>
<text text-anchor="start" x="658.5" y="-301.8" font-family="Arial" font-size="8.00">cdna_end : int</text>
<text text-anchor="start" x="658.5" y="-291.8" font-family="Arial" font-size="8.00">residues : text</text>
<text text-anchor="start" x="658.5" y="-281.8" font-family="Arial" font-size="8.00">seqlen : int</text>
</g>
<!-- ProteinDomain -->
<g id="node9" class="node"><title>ProteinDomain</title>
<polygon fill="#fed9a6" stroke="black" points="382.5,-270 382.5,-426 549.5,-426 549.5,-270 382.5,-270"/>
<text text-anchor="middle" x="466" y="-414.8" font-family="Arial" font-size="8.00">ProteinDomain</text>
<text text-anchor="middle" x="466" y="-404.8" font-family="Arial" font-size="8.00"> implements CdnaPosition, GdnaPosition</text>
<text text-anchor="middle" x="466" y="-394.8" font-family="Arial" font-size="8.00"> extends Characteristic</text>
<polyline fill="none" stroke="black" points="382.5,-388 549.5,-388 "/>
<text text-anchor="start" x="390.5" y="-376.8" font-family="Arial" font-size="8.00">id : int*</text>
<text text-anchor="start" x="390.5" y="-366.8" font-family="Arial" font-size="8.00">identifier : string*</text>
<text text-anchor="start" x="390.5" y="-356.8" font-family="Arial" font-size="8.00">name : string*</text>
<text text-anchor="start" x="390.5" y="-346.8" font-family="Arial" font-size="8.00">__Type : enum*</text>
<text text-anchor="start" x="390.5" y="-336.8" font-family="Arial" font-size="8.00">description : text</text>
<text text-anchor="start" x="390.5" y="-326.8" font-family="Arial" font-size="8.00">cdna : xref&#45;&gt;gene</text>
<text text-anchor="start" x="390.5" y="-316.8" font-family="Arial" font-size="8.00">cdna_start : int</text>
<text text-anchor="start" x="390.5" y="-306.8" font-family="Arial" font-size="8.00">cdna_end : int</text>
<text text-anchor="start" x="390.5" y="-296.8" font-family="Arial" font-size="8.00">gdna : xref&#45;&gt;chromosome</text>
<text text-anchor="start" x="390.5" y="-286.8" font-family="Arial" font-size="8.00">gdna_start : int</text>
<text text-anchor="start" x="390.5" y="-276.8" font-family="Arial" font-size="8.00">gdna_end : int</text>
</g>
<!-- Exon -->
<g id="node10" class="node"><title>Exon</title>
<polygon fill="#fed9a6" stroke="black" points="160.5,-265 160.5,-431 327.5,-431 327.5,-265 160.5,-265"/>
<text text-anchor="middle" x="244" y="-419.8" font-family="Arial" font-size="8.00">Exon</text>
<text text-anchor="middle" x="244" y="-409.8" font-family="Arial" font-size="8.00"> implements CdnaPosition, GdnaPosition</text>
<text text-anchor="middle" x="244" y="-399.8" font-family="Arial" font-size="8.00"> extends Characteristic</text>
<polyline fill="none" stroke="black" points="160.5,-393 327.5,-393 "/>
<text text-anchor="start" x="168.5" y="-381.8" font-family="Arial" font-size="8.00">id : int*</text>
<text text-anchor="start" x="168.5" y="-371.8" font-family="Arial" font-size="8.00">identifier : string*</text>
<text text-anchor="start" x="168.5" y="-361.8" font-family="Arial" font-size="8.00">name : string*</text>
<text text-anchor="start" x="168.5" y="-351.8" font-family="Arial" font-size="8.00">__Type : enum*</text>
<text text-anchor="start" x="168.5" y="-341.8" font-family="Arial" font-size="8.00">description : text</text>
<text text-anchor="start" x="168.5" y="-331.8" font-family="Arial" font-size="8.00">cdna : xref&#45;&gt;gene</text>
<text text-anchor="start" x="168.5" y="-321.8" font-family="Arial" font-size="8.00">cdna_start : int</text>
<text text-anchor="start" x="168.5" y="-311.8" font-family="Arial" font-size="8.00">cdna_end : int</text>
<text text-anchor="start" x="168.5" y="-301.8" font-family="Arial" font-size="8.00">gdna : xref&#45;&gt;chromosome</text>
<text text-anchor="start" x="168.5" y="-291.8" font-family="Arial" font-size="8.00">gdna_start : int</text>
<text text-anchor="start" x="168.5" y="-281.8" font-family="Arial" font-size="8.00">gdna_end : int</text>
<text text-anchor="start" x="168.5" y="-271.8" font-family="Arial" font-size="8.00">isIntron : bool*</text>
</g>
<!-- Variant -->
<g id="node11" class="node"><title>Variant</title>
<polygon fill="#fed9a6" stroke="black" points="495.5,-1 495.5,-227 704.5,-227 704.5,-1 495.5,-1"/>
<text text-anchor="middle" x="600" y="-215.8" font-family="Arial" font-size="8.00">Variant</text>
<text text-anchor="middle" x="600" y="-205.8" font-family="Arial" font-size="8.00"> implements GdnaPosition, CdnaPosition, AaPosition</text>
<text text-anchor="middle" x="600" y="-195.8" font-family="Arial" font-size="8.00"> extends Characteristic</text>
<polyline fill="none" stroke="black" points="495.5,-189 704.5,-189 "/>
<text text-anchor="start" x="503.5" y="-177.8" font-family="Arial" font-size="8.00">id : int*</text>
<text text-anchor="start" x="503.5" y="-167.8" font-family="Arial" font-size="8.00">identifier : string*</text>
<text text-anchor="start" x="503.5" y="-157.8" font-family="Arial" font-size="8.00">name : string*</text>
<text text-anchor="start" x="503.5" y="-147.8" font-family="Arial" font-size="8.00">__Type : enum*</text>
<text text-anchor="start" x="503.5" y="-137.8" font-family="Arial" font-size="8.00">description : text</text>
<text text-anchor="start" x="503.5" y="-127.8" font-family="Arial" font-size="8.00">gdna : xref&#45;&gt;chromosome</text>
<text text-anchor="start" x="503.5" y="-117.8" font-family="Arial" font-size="8.00">gdna_start : int</text>
<text text-anchor="start" x="503.5" y="-107.8" font-family="Arial" font-size="8.00">gdna_end : int</text>
<text text-anchor="start" x="503.5" y="-97.8" font-family="Arial" font-size="8.00">cdna : xref&#45;&gt;gene</text>
<text text-anchor="start" x="503.5" y="-87.8" font-family="Arial" font-size="8.00">cdna_start : int</text>
<text text-anchor="start" x="503.5" y="-77.8" font-family="Arial" font-size="8.00">cdna_end : int</text>
<text text-anchor="start" x="503.5" y="-67.8" font-family="Arial" font-size="8.00">aa : xref&#45;&gt;protein</text>
<text text-anchor="start" x="503.5" y="-57.8" font-family="Arial" font-size="8.00">aa_start : int</text>
<text text-anchor="start" x="503.5" y="-47.8" font-family="Arial" font-size="8.00">aa_end : int</text>
<text text-anchor="start" x="503.5" y="-37.8" font-family="Arial" font-size="8.00">gdna_notation : string*</text>
<text text-anchor="start" x="503.5" y="-27.8" font-family="Arial" font-size="8.00">cdna_notation : string*</text>
<text text-anchor="start" x="503.5" y="-17.8" font-family="Arial" font-size="8.00">aa_notation : string</text>
<text text-anchor="start" x="503.5" y="-7.8" font-family="Arial" font-size="8.00">variantType : xref&#45;&gt;ontologyTerm</text>
</g>
<!-- Characteristic -->
<g id="node13" class="node"><title>Characteristic</title>
<polygon fill="white" stroke="#808080" points="415,-1011 415,-1047 483,-1047 483,-1011 415,-1011"/>
<text text-anchor="middle" x="449" y="-1026.8" font-family="Arial" font-size="8.00">Characteristic</text>
</g>
<!-- Species -->
<g id="node21" class="node"><title>Species</title>
<polygon fill="white" stroke="#808080" points="179,-1011 179,-1047 233,-1047 233,-1011 179,-1011"/>
<text text-anchor="middle" x="206" y="-1026.8" font-family="Arial" font-size="8.00">Species</text>
</g>
<!-- OntologyTerm -->
<g id="node33" class="node"><title>OntologyTerm</title>
<polygon fill="white" stroke="#808080" points="567,-330 567,-366 633,-366 633,-330 567,-330"/>
<text text-anchor="middle" x="600" y="-345.8" font-family="Arial" font-size="8.00">OntologyTerm</text>
</g>
</g>
</svg>
