<?xml version="1.0" encoding="UTF-8" standalone="no"?>
<!DOCTYPE svg PUBLIC "-//W3C//DTD SVG 1.1//EN"
 "http://www.w3.org/Graphics/SVG/1.1/DTD/svg11.dtd">
<!-- Generated by graphviz version 2.26.3 (20100126.1600)
 -->
<!-- Title: G Pages: 1 -->
<svg width="504pt" height="806pt"
 viewBox="0.00 0.00 503.72 806.00" xmlns="http://www.w3.org/2000/svg" xmlns:xlink="http://www.w3.org/1999/xlink">
<g id="graph1" class="graph" transform="scale(1 1) rotate(0) translate(4 802)">
<title>G</title>
<polygon fill="lightyellow" stroke="lightyellow" points="-4,5 -4,-802 500.723,-802 500.723,5 -4,5"/>
<!-- ObservationTarget&#45;&gt;Characteristic -->
<g id="edge2" class="edge"><title>ObservationTarget&#45;&gt;Characteristic</title>
<path fill="none" stroke="black" d="M301.791,-658.219C313.575,-672.339 326.776,-688.158 339.002,-702.808"/>
<polygon fill="none" stroke="black" points="336.584,-705.373 345.678,-710.808 341.958,-700.888 336.584,-705.373"/>
</g>
<!-- ObservableFeature&#45;&gt;Characteristic -->
<g id="edge4" class="edge"><title>ObservableFeature&#45;&gt;Characteristic</title>
<path fill="none" stroke="black" d="M197.806,-667.606C200.756,-669.851 203.736,-671.997 206.723,-674 241.722,-697.469 284.718,-717.233 319.334,-731.245"/>
<polygon fill="none" stroke="black" points="318.276,-734.591 328.861,-735.043 320.868,-728.089 318.276,-734.591"/>
</g>
<!-- ObservableFeature&#45;&gt;OntologyTerm -->
<g id="edge12" class="edge"><title>ObservableFeature&#45;&gt;OntologyTerm</title>
<path fill="none" stroke="black" d="M126.573,-673.143C120.723,-692.977 114.498,-714.08 109.876,-729.751"/>
<polygon fill="black" stroke="black" points="108.124,-735.69 107.232,-729.171 108.973,-732.812 109.822,-729.935 109.822,-729.935 109.822,-729.935 108.973,-732.812 112.411,-730.699 108.124,-735.69 108.124,-735.69"/>
<text text-anchor="middle" x="114.742" y="-725.993" font-family="Bitstream Vera Sans" font-size="8.00">0..1</text>
<text text-anchor="middle" x="119.956" y="-678.44" font-family="Bitstream Vera Sans" font-size="8.00">*</text>
</g>
<!-- Category&#45;&gt;Characteristic -->
<g id="edge6" class="edge"><title>Category&#45;&gt;Characteristic</title>
<path fill="none" stroke="black" d="M340.497,-519.112C347.207,-530.882 353.379,-543.496 357.723,-556 374.083,-603.09 379.633,-659.836 381.357,-700.485"/>
<polygon fill="none" stroke="black" points="377.868,-700.849 381.725,-710.717 384.863,-700.598 377.868,-700.849"/>
</g>
<!-- Category&#45;&gt;ObservableFeature -->
<g id="edge14" class="edge"><title>Category&#45;&gt;ObservableFeature</title>
<path fill="none" stroke="black" d="M240.746,-519.221C228.221,-531.586 214.998,-544.639 202.48,-556.996"/>
<polygon fill="black" stroke="black" points="197.903,-561.515 200.276,-555.378 200.038,-559.407 202.173,-557.3 202.173,-557.3 202.173,-557.3 200.038,-559.407 204.07,-559.221 197.903,-561.515 197.903,-561.515"/>
<text text-anchor="middle" x="207.322" y="-555.955" font-family="Bitstream Vera Sans" font-size="8.00">1</text>
<text text-anchor="middle" x="231.328" y="-520.38" font-family="Bitstream Vera Sans" font-size="8.00">*</text>
</g>
<!-- Protocol&#45;&gt;Characteristic -->
<g id="edge8" class="edge"><title>Protocol&#45;&gt;Characteristic</title>
<path fill="none" stroke="black" d="M171.888,-506.993C180.761,-511.721 189.833,-516.182 198.723,-520 252.237,-542.984 283.656,-514.702 324.723,-556 363.122,-594.614 342.565,-621.695 357.723,-674 360.272,-682.796 363.024,-692.121 365.724,-701.179"/>
<polygon fill="none" stroke="black" points="362.402,-702.287 368.621,-710.865 369.109,-700.281 362.402,-702.287"/>
</g>
<!-- Protocol&#45;&gt;ObservableFeature -->
<g id="edge32" class="edge"><title>Protocol&#45;&gt;ObservableFeature</title>
<path fill="none" stroke="black" d="M115.736,-519.221C118.781,-529.642 121.969,-540.551 125.057,-551.121"/>
<polygon fill="black" stroke="black" points="126.761,-556.952 122.487,-551.951 125.92,-554.073 125.078,-551.193 125.078,-551.193 125.078,-551.193 125.92,-554.073 127.67,-550.436 126.761,-556.952 126.761,-556.952"/>
<text text-anchor="middle" x="128.276" y="-544.868" font-family="Bitstream Vera Sans" font-size="8.00">*</text>
<text text-anchor="middle" x="114.221" y="-526.905" font-family="Bitstream Vera Sans" font-size="8.00">*</text>
</g>
<!-- Protocol&#45;&gt;Protocol -->
<g id="edge30" class="edge"><title>Protocol&#45;&gt;Protocol</title>
<path fill="none" stroke="black" d="M171.914,-434.945C182.555,-439.081 189.723,-447.766 189.723,-461 189.723,-471.753 184.991,-479.503 177.509,-484.249"/>
<polygon fill="black" stroke="black" points="171.914,-487.055 176.066,-481.952 174.595,-485.71 177.277,-484.365 177.277,-484.365 177.277,-484.365 174.595,-485.71 178.487,-486.779 171.914,-487.055 171.914,-487.055"/>
<text text-anchor="middle" x="181.91" y="-484.57" font-family="Bitstream Vera Sans" font-size="8.00">*</text>
<text text-anchor="middle" x="178.466" y="-440.299" font-family="Bitstream Vera Sans" font-size="8.00">*</text>
</g>
<!-- Protocol&#45;&gt;OntologyTerm -->
<g id="edge16" class="edge"><title>Protocol&#45;&gt;OntologyTerm</title>
<path fill="none" stroke="black" d="M85.9451,-519.034C83.7714,-531.187 81.8533,-543.967 80.7233,-556 75.8203,-608.215 73.7072,-622.027 80.7233,-674 83.3092,-693.155 89.2287,-714.21 94.2767,-729.909"/>
<polygon fill="black" stroke="black" points="96.231,-735.861 91.7939,-731.003 95.2951,-733.011 94.3592,-730.161 94.3592,-730.161 94.3592,-730.161 95.2951,-733.011 96.9245,-729.318 96.231,-735.861 96.231,-735.861"/>
<text text-anchor="middle" x="97.419" y="-723.732" font-family="Bitstream Vera Sans" font-size="8.00">0..1</text>
<text text-anchor="middle" x="80.2138" y="-525.028" font-family="Bitstream Vera Sans" font-size="8.00">*</text>
</g>
<!-- DataSet&#45;&gt;Characteristic -->
<g id="edge10" class="edge"><title>DataSet&#45;&gt;Characteristic</title>
<path fill="none" stroke="black" d="M392.15,-365.117C395.712,-377.151 398.853,-389.863 400.723,-402 416.908,-506.996 402.407,-631.448 391.394,-700.694"/>
<polygon fill="none" stroke="black" points="387.883,-700.479 389.73,-710.912 394.792,-701.604 387.883,-700.479"/>
</g>
<!-- DataSet&#45;&gt;Protocol -->
<g id="edge18" class="edge"><title>DataSet&#45;&gt;Protocol</title>
<path fill="none" stroke="black" d="M311.584,-339.125C278.299,-357.34 236.049,-380.686 198.723,-402 191.749,-405.983 184.523,-410.155 177.293,-414.361"/>
<polygon fill="black" stroke="black" points="171.767,-417.581 175.591,-412.227 174.359,-416.071 176.951,-414.56 176.951,-414.56 176.951,-414.56 174.359,-416.071 178.311,-416.893 171.767,-417.581 171.767,-417.581"/>
<text text-anchor="middle" x="181.725" y="-414.469" font-family="Bitstream Vera Sans" font-size="8.00">0..1</text>
<text text-anchor="middle" x="301.605" y="-337.574" font-family="Bitstream Vera Sans" font-size="8.00">*</text>
</g>
<!-- ObservationSet&#45;&gt;Characteristic -->
<g id="edge22" class="edge"><title>ObservationSet&#45;&gt;Characteristic</title>
<path fill="none" stroke="black" d="M419.68,-211.09C427.453,-222.264 434.656,-234.995 438.723,-248 462.491,-323.995 440.875,-564.529 414.723,-674 412.272,-684.261 408.683,-694.912 404.764,-704.967"/>
<polygon fill="black" stroke="black" points="402.425,-710.811 402.148,-704.237 403.54,-708.025 404.655,-705.24 404.655,-705.24 404.655,-705.24 403.54,-708.025 407.161,-706.244 402.425,-710.811 402.425,-710.811"/>
<text text-anchor="middle" x="409.716" y="-701.767" font-family="Bitstream Vera Sans" font-size="8.00">1</text>
<text text-anchor="middle" x="421.285" y="-218.76" font-family="Bitstream Vera Sans" font-size="8.00">*</text>
</g>
<!-- ObservationSet&#45;&gt;DataSet -->
<g id="edge20" class="edge"><title>ObservationSet&#45;&gt;DataSet</title>
<path fill="none" stroke="black" d="M382.181,-211.041C380.996,-220.964 379.686,-231.937 378.388,-242.811"/>
<polygon fill="black" stroke="black" points="377.668,-248.835 375.699,-242.557 378.024,-245.856 378.38,-242.877 378.38,-242.877 378.38,-242.877 378.024,-245.856 381.061,-243.197 377.668,-248.835 377.668,-248.835"/>
<text text-anchor="middle" x="382.939" y="-238.137" font-family="Bitstream Vera Sans" font-size="8.00">1</text>
<text text-anchor="middle" x="376.91" y="-217.339" font-family="Bitstream Vera Sans" font-size="8.00">*</text>
</g>
<!-- ObservedValue&#45;&gt;Characteristic -->
<g id="edge28" class="edge"><title>ObservedValue&#45;&gt;Characteristic</title>
<path fill="none" stroke="black" d="M435.312,-97.216C444.585,-108.534 453.367,-121.085 459.723,-134 494.405,-204.463 495.723,-228.464 495.723,-307 495.723,-307 495.723,-307 495.723,-461 495.723,-559.114 479.362,-585.16 437.723,-674 432.699,-684.719 426.249,-695.543 419.526,-705.617"/>
<polygon fill="black" stroke="black" points="415.99,-710.812 417.134,-704.332 417.678,-708.331 419.366,-705.851 419.366,-705.851 419.366,-705.851 417.678,-708.331 421.598,-707.37 415.99,-710.812 415.99,-710.812"/>
<text text-anchor="middle" x="424.583" y="-703.496" font-family="Bitstream Vera Sans" font-size="8.00">0..1</text>
<text text-anchor="middle" x="437.708" y="-104.725" font-family="Bitstream Vera Sans" font-size="8.00">*</text>
</g>
<!-- ObservedValue&#45;&gt;ObservableFeature -->
<g id="edge26" class="edge"><title>ObservedValue&#45;&gt;ObservableFeature</title>
<path fill="none" stroke="black" d="M308.426,-95.546C218.524,-154.084 75.8539,-263.861 16.7233,-402 -3.91445,-450.213 -6.76014,-473.107 16.7233,-520 30.9966,-548.502 58.3315,-570.653 83.996,-586.368"/>
<polygon fill="black" stroke="black" points="89.4419,-589.624 82.9066,-588.863 86.867,-588.085 84.2921,-586.545 84.2921,-586.545 84.2921,-586.545 86.867,-588.085 85.6776,-584.228 89.4419,-589.624 89.4419,-589.624"/>
<text text-anchor="middle" x="83.8317" y="-579.146" font-family="Bitstream Vera Sans" font-size="8.00">1</text>
<text text-anchor="middle" x="298.546" y="-94.8883" font-family="Bitstream Vera Sans" font-size="8.00">*</text>
</g>
<!-- ObservedValue&#45;&gt;ObservationSet -->
<g id="edge24" class="edge"><title>ObservedValue&#45;&gt;ObservationSet</title>
<path fill="none" stroke="black" d="M386.723,-97.2967C386.723,-107.546 386.723,-118.321 386.723,-128.424"/>
<polygon fill="black" stroke="black" points="386.723,-134.617 384.023,-128.617 386.723,-131.617 386.723,-128.617 386.723,-128.617 386.723,-128.617 386.723,-131.617 389.423,-128.618 386.723,-134.617 386.723,-134.617"/>
<text text-anchor="middle" x="390.949" y="-123.354" font-family="Bitstream Vera Sans" font-size="8.00">1</text>
<text text-anchor="middle" x="382.497" y="-104.16" font-family="Bitstream Vera Sans" font-size="8.00">*</text>
</g>
<!-- Characteristic -->
<g id="node1" class="node"><title>Characteristic</title>
<polygon fill="#ccebc5" stroke="black" points="329.223,-711 329.223,-797 434.223,-797 434.223,-711 329.223,-711"/>
<text text-anchor="middle" x="381.723" y="-785.8" font-family="Arial" font-size="8.00">Characteristic</text>
<text text-anchor="middle" x="381.723" y="-775.8" font-family="Arial" font-size="8.00"> implements Identifiable</text>
<polyline fill="none" stroke="black" points="329.223,-769 434.223,-769 "/>
<text text-anchor="start" x="337.223" y="-757.8" font-family="Arial" font-size="8.00">id : int*</text>
<text text-anchor="start" x="337.223" y="-747.8" font-family="Arial" font-size="8.00">identifier : string*</text>
<text text-anchor="start" x="337.223" y="-737.8" font-family="Arial" font-size="8.00">name : string*</text>
<text text-anchor="start" x="337.223" y="-727.8" font-family="Arial" font-size="8.00">__Type : enum*</text>
<text text-anchor="start" x="337.223" y="-717.8" font-family="Arial" font-size="8.00">description : text</text>
</g>
<!-- ObservationTarget -->
<g id="node2" class="node"><title>ObservationTarget</title>
<polygon fill="#ccebc5" stroke="black" points="215.223,-572 215.223,-658 316.223,-658 316.223,-572 215.223,-572"/>
<text text-anchor="middle" x="265.723" y="-646.8" font-family="Arial" font-size="8.00">ObservationTarget</text>
<text text-anchor="middle" x="265.723" y="-636.8" font-family="Arial" font-size="8.00"> extends Characteristic</text>
<polyline fill="none" stroke="black" points="215.223,-630 316.223,-630 "/>
<text text-anchor="start" x="223.223" y="-618.8" font-family="Arial" font-size="8.00">id : int*</text>
<text text-anchor="start" x="223.223" y="-608.8" font-family="Arial" font-size="8.00">identifier : string*</text>
<text text-anchor="start" x="223.223" y="-598.8" font-family="Arial" font-size="8.00">name : string*</text>
<text text-anchor="start" x="223.223" y="-588.8" font-family="Arial" font-size="8.00">__Type : enum*</text>
<text text-anchor="start" x="223.223" y="-578.8" font-family="Arial" font-size="8.00">description : text</text>
</g>
<!-- ObservableFeature -->
<g id="node3" class="node"><title>ObservableFeature</title>
<polygon fill="#ccebc5" stroke="black" points="89.7233,-557 89.7233,-673 197.723,-673 197.723,-557 89.7233,-557"/>
<text text-anchor="middle" x="143.723" y="-661.8" font-family="Arial" font-size="8.00">ObservableFeature</text>
<text text-anchor="middle" x="143.723" y="-651.8" font-family="Arial" font-size="8.00"> extends Characteristic</text>
<polyline fill="none" stroke="black" points="89.7233,-645 197.723,-645 "/>
<text text-anchor="start" x="97.7233" y="-633.8" font-family="Arial" font-size="8.00">id : int*</text>
<text text-anchor="start" x="97.7233" y="-623.8" font-family="Arial" font-size="8.00">identifier : string*</text>
<text text-anchor="start" x="97.7233" y="-613.8" font-family="Arial" font-size="8.00">name : string*</text>
<text text-anchor="start" x="97.7233" y="-603.8" font-family="Arial" font-size="8.00">__Type : enum*</text>
<text text-anchor="start" x="97.7233" y="-593.8" font-family="Arial" font-size="8.00">description : text</text>
<text text-anchor="start" x="97.7233" y="-583.8" font-family="Arial" font-size="8.00">unit : xref&#45;&gt;ontologyTerm</text>
<text text-anchor="start" x="97.7233" y="-573.8" font-family="Arial" font-size="8.00">dataType : enum*</text>
<text text-anchor="start" x="97.7233" y="-563.8" font-family="Arial" font-size="8.00">temporal : bool*</text>
</g>
<!-- Category -->
<g id="node4" class="node"><title>Category</title>
<polygon fill="#ccebc5" stroke="black" points="207.223,-403 207.223,-519 392.223,-519 392.223,-403 207.223,-403"/>
<text text-anchor="middle" x="299.723" y="-507.8" font-family="Arial" font-size="8.00">Category</text>
<text text-anchor="middle" x="299.723" y="-497.8" font-family="Arial" font-size="8.00"> extends Characteristic</text>
<polyline fill="none" stroke="black" points="207.223,-491 392.223,-491 "/>
<text text-anchor="start" x="215.223" y="-479.8" font-family="Arial" font-size="8.00">id : int*</text>
<text text-anchor="start" x="215.223" y="-469.8" font-family="Arial" font-size="8.00">identifier : string*</text>
<text text-anchor="start" x="215.223" y="-459.8" font-family="Arial" font-size="8.00">name : string*</text>
<text text-anchor="start" x="215.223" y="-449.8" font-family="Arial" font-size="8.00">__Type : enum*</text>
<text text-anchor="start" x="215.223" y="-439.8" font-family="Arial" font-size="8.00">description : text</text>
<text text-anchor="start" x="215.223" y="-429.8" font-family="Arial" font-size="8.00">observableFeature : xref&#45;&gt;observableFeature*</text>
<text text-anchor="start" x="215.223" y="-419.8" font-family="Arial" font-size="8.00">valueCode : string*</text>
<text text-anchor="start" x="215.223" y="-409.8" font-family="Arial" font-size="8.00">isMissing : bool*</text>
</g>
<!-- Protocol -->
<g id="node5" class="node"><title>Protocol</title>
<polygon fill="#ccebc5" stroke="black" points="25.7233,-403 25.7233,-519 171.723,-519 171.723,-403 25.7233,-403"/>
<text text-anchor="middle" x="98.7233" y="-507.8" font-family="Arial" font-size="8.00">Protocol</text>
<text text-anchor="middle" x="98.7233" y="-497.8" font-family="Arial" font-size="8.00"> extends Characteristic</text>
<polyline fill="none" stroke="black" points="25.7233,-491 171.723,-491 "/>
<text text-anchor="start" x="33.7233" y="-479.8" font-family="Arial" font-size="8.00">id : int*</text>
<text text-anchor="start" x="33.7233" y="-469.8" font-family="Arial" font-size="8.00">identifier : string*</text>
<text text-anchor="start" x="33.7233" y="-459.8" font-family="Arial" font-size="8.00">name : string*</text>
<text text-anchor="start" x="33.7233" y="-449.8" font-family="Arial" font-size="8.00">__Type : enum*</text>
<text text-anchor="start" x="33.7233" y="-439.8" font-family="Arial" font-size="8.00">description : text</text>
<text text-anchor="start" x="33.7233" y="-429.8" font-family="Arial" font-size="8.00">protocolType : xref&#45;&gt;ontologyTerm</text>
<text text-anchor="start" x="33.7233" y="-419.8" font-family="Arial" font-size="8.00">subprotocols : mref&#45;&gt;protocol</text>
<text text-anchor="start" x="33.7233" y="-409.8" font-family="Arial" font-size="8.00">features : mref&#45;&gt;observableFeature</text>
</g>
<!-- DataSet -->
<g id="node6" class="node"><title>DataSet</title>
<polygon fill="#ccebc5" stroke="black" points="311.723,-249 311.723,-365 429.723,-365 429.723,-249 311.723,-249"/>
<text text-anchor="middle" x="370.723" y="-353.8" font-family="Arial" font-size="8.00">DataSet</text>
<text text-anchor="middle" x="370.723" y="-343.8" font-family="Arial" font-size="8.00"> extends Characteristic</text>
<polyline fill="none" stroke="black" points="311.723,-337 429.723,-337 "/>
<text text-anchor="start" x="319.723" y="-325.8" font-family="Arial" font-size="8.00">id : int*</text>
<text text-anchor="start" x="319.723" y="-315.8" font-family="Arial" font-size="8.00">identifier : string*</text>
<text text-anchor="start" x="319.723" y="-305.8" font-family="Arial" font-size="8.00">name : string*</text>
<text text-anchor="start" x="319.723" y="-295.8" font-family="Arial" font-size="8.00">__Type : enum*</text>
<text text-anchor="start" x="319.723" y="-285.8" font-family="Arial" font-size="8.00">description : text</text>
<text text-anchor="start" x="319.723" y="-275.8" font-family="Arial" font-size="8.00">protocolUsed : xref&#45;&gt;protocol</text>
<text text-anchor="start" x="319.723" y="-265.8" font-family="Arial" font-size="8.00">startTime : datetime*</text>
<text text-anchor="start" x="319.723" y="-255.8" font-family="Arial" font-size="8.00">endTime : datetime</text>
</g>
<!-- ObservationSet -->
<g id="node7" class="node"><title>ObservationSet</title>
<polygon fill="#ccebc5" stroke="black" points="322.723,-135 322.723,-211 450.723,-211 450.723,-135 322.723,-135"/>
<text text-anchor="middle" x="386.723" y="-199.8" font-family="Arial" font-size="8.00">ObservationSet</text>
<text text-anchor="middle" x="386.723" y="-189.8" font-family="Arial" font-size="8.00"> implements Autoid</text>
<polyline fill="none" stroke="black" points="322.723,-183 450.723,-183 "/>
<text text-anchor="start" x="330.723" y="-171.8" font-family="Arial" font-size="8.00">id : int*</text>
<text text-anchor="start" x="330.723" y="-161.8" font-family="Arial" font-size="8.00">partOfDataSet : xref&#45;&gt;dataSet*</text>
<text text-anchor="start" x="330.723" y="-151.8" font-family="Arial" font-size="8.00">target : xref&#45;&gt;characteristic*</text>
<text text-anchor="start" x="330.723" y="-141.8" font-family="Arial" font-size="8.00">time : datetime</text>
</g>
<!-- ObservedValue -->
<g id="node8" class="node"><title>ObservedValue</title>
<polygon fill="#ccebc5" stroke="black" points="308.723,-1 308.723,-97 464.723,-97 464.723,-1 308.723,-1"/>
<text text-anchor="middle" x="386.723" y="-85.8" font-family="Arial" font-size="8.00">ObservedValue</text>
<text text-anchor="middle" x="386.723" y="-75.8" font-family="Arial" font-size="8.00"> implements Autoid</text>
<polyline fill="none" stroke="black" points="308.723,-69 464.723,-69 "/>
<text text-anchor="start" x="316.723" y="-57.8" font-family="Arial" font-size="8.00">id : int*</text>
<text text-anchor="start" x="316.723" y="-47.8" font-family="Arial" font-size="8.00">__Type : enum*</text>
<text text-anchor="start" x="316.723" y="-37.8" font-family="Arial" font-size="8.00">observationSet : xref&#45;&gt;observationSet*</text>
<text text-anchor="start" x="316.723" y="-27.8" font-family="Arial" font-size="8.00">feature : xref&#45;&gt;observableFeature*</text>
<text text-anchor="start" x="316.723" y="-17.8" font-family="Arial" font-size="8.00">characteristic : xref&#45;&gt;characteristic</text>
<text text-anchor="start" x="316.723" y="-7.8" font-family="Arial" font-size="8.00">value : string</text>
</g>
<!-- OntologyTerm -->
<g id="node15" class="node"><title>OntologyTerm</title>
<polygon fill="white" stroke="#808080" points="69.7233,-736 69.7233,-772 135.723,-772 135.723,-736 69.7233,-736"/>
<text text-anchor="middle" x="102.723" y="-751.8" font-family="Arial" font-size="8.00">OntologyTerm</text>
</g>
</g>
</svg>
