<?xml version="1.0" encoding="UTF-8" standalone="no"?>
<!DOCTYPE svg PUBLIC "-//W3C//DTD SVG 1.1//EN"
 "http://www.w3.org/Graphics/SVG/1.1/DTD/svg11.dtd">
<!-- Generated by graphviz version 2.26.3 (20100126.1600)
 -->
<!-- Title: G Pages: 1 -->
<svg width="234pt" height="86pt"
 viewBox="0.00 0.00 234.00 86.00" xmlns="http://www.w3.org/2000/svg" xmlns:xlink="http://www.w3.org/1999/xlink">
<g id="graph1" class="graph" transform="scale(1 1) rotate(0) translate(4 82)">
<title>G</title>
<polygon fill="lightyellow" stroke="lightyellow" points="-4,5 -4,-82 231,-82 231,5 -4,5"/>
<!-- MolgenisFile -->
<g id="node1" class="node"><title>MolgenisFile</title>
<polygon fill="#fbb4ae" stroke="black" points="-0.5,-1 -0.5,-77 104.5,-77 104.5,-1 -0.5,-1"/>
<text text-anchor="middle" x="52" y="-65.8" font-family="Arial" font-size="8.00">MolgenisFile</text>
<text text-anchor="middle" x="52" y="-55.8" font-family="Arial" font-size="8.00"> implements Identifiable</text>
<polyline fill="none" stroke="black" points="-0.5,-49 104.5,-49 "/>
<text text-anchor="start" x="7.5" y="-37.8" font-family="Arial" font-size="8.00">id : int*</text>
<text text-anchor="start" x="7.5" y="-27.8" font-family="Arial" font-size="8.00">identifier : string*</text>
<text text-anchor="start" x="7.5" y="-17.8" font-family="Arial" font-size="8.00">name : string*</text>
<text text-anchor="start" x="7.5" y="-7.8" font-family="Arial" font-size="8.00">extension : string*</text>
</g>
<!-- RuntimeProperty -->
<g id="node2" class="node"><title>RuntimeProperty</title>
<polygon fill="#fbb4ae" stroke="black" points="121.5,-1 121.5,-77 226.5,-77 226.5,-1 121.5,-1"/>
<text text-anchor="middle" x="174" y="-65.8" font-family="Arial" font-size="8.00">RuntimeProperty</text>
<text text-anchor="middle" x="174" y="-55.8" font-family="Arial" font-size="8.00"> implements Identifiable</text>
<polyline fill="none" stroke="black" points="121.5,-49 226.5,-49 "/>
<text text-anchor="start" x="129.5" y="-37.8" font-family="Arial" font-size="8.00">id : int*</text>
<text text-anchor="start" x="129.5" y="-27.8" font-family="Arial" font-size="8.00">identifier : string*</text>
<text text-anchor="start" x="129.5" y="-17.8" font-family="Arial" font-size="8.00">name : string*</text>
<text text-anchor="start" x="129.5" y="-7.8" font-family="Arial" font-size="8.00">value : string*</text>
</g>
</g>
</svg>
